<?xml version="1.0" encoding="utf-8"?>
<!-- Generator: Adobe Illustrator 16.0.0, SVG Export Plug-In . SVG Version: 6.00 Build 0)  -->
<!DOCTYPE svg PUBLIC "-//W3C//DTD SVG 1.1//EN" "http://www.w3.org/Graphics/SVG/1.1/DTD/svg11.dtd">
<svg version="1.1" id="Calque_1" xmlns="http://www.w3.org/2000/svg" xmlns:xlink="http://www.w3.org/1999/xlink" x="0px" y="0px"
	 width="20px" height="20px" viewBox="0 0 40 40" enable-background="new 0 0 40 40" xml:space="preserve" fill='#DDD'>
<g>
	<path d="M34.448,9.794c1.135-0.99,1.867-2.431,1.867-4.056c0-2.984-2.419-5.404-5.402-5.404
		c-2.368,0-4.358,1.533-5.089,3.653c-1.746-0.551-3.604-0.851-5.532-0.851c-1.888,0-3.707,0.287-5.421,0.814
		c-0.74-2.102-2.722-3.617-5.076-3.617c-2.984,0-5.404,2.42-5.404,5.404c0,1.592,0.701,3.008,1.797,3.997
		c-2.67,3.191-4.281,7.299-4.281,11.786c0,8.833,6.229,16.211,14.533,17.979c1.119-2.376,2.88-8.439,0.299-9.781
		c-5.621-1.517-9.764-6.639-9.764-12.741c0-7.294,5.913-13.208,13.207-13.208c1.906,0,3.92,0.412,5.557,1.138
		C25.757,4.917,26,4.922,26,4.931c0,0.002,0,0.003,0,0.005c2,1.242,4.811,3.403,6.172,6.097c0.02-0.004-0.064-0.005-0.045-0.009
		c0.91,1.79,1.384,3.81,1.384,5.956c0,5.033-2.854,9.397-7.003,11.613c-0.004,0.003-0.021,0.005-0.025,0.007
		c-0.312,0.166-0.635,0.319-0.96,0.46c-0.146,0.064-0.298,0.124-0.446,0.184c-0.159,0.063-0.321,0.121-0.484,0.177
		c-0.256,0.091-0.515,0.177-0.778,0.252c-2.396,0.551-1.001,7.403,0.158,9.865c8.391-1.704,14.705-9.124,14.705-18.016
		C38.677,17.063,37.088,12.977,34.448,9.794z"/>
	<path d="M16.884,12.168c-1.344-0.415-2.886,0.72-3.446,2.534c-0.56,1.813,0.033,3.798,1.419,4.035
		c0.614,0.105,0.894,0.091,1.56-0.485c0.32-0.32,0.561-0.703,0.561-1.027c0-1.42,0.666-2.572,1.492-2.572
		c0.01,0,0.019,0.003,0.027,0.004C18.055,13.752,17.836,12.461,16.884,12.168z M16.382,14.22c-0.2,0-0.358-0.161-0.358-0.358
		c0-0.198,0.158-0.359,0.358-0.359c0.199,0,0.358,0.161,0.358,0.359C16.74,14.059,16.581,14.22,16.382,14.22z"/>
	<path d="M27.237,14.702c-0.562-1.814-2.104-2.949-3.446-2.534c-0.953,0.293-1.171,1.584-1.612,2.488
		c0.007-0.001,0.016-0.004,0.027-0.004c0.824,0,1.493,1.152,1.493,2.572c0,0.324,0.239,0.707,0.56,1.027
		c0.665,0.576,0.945,0.591,1.56,0.485C27.203,18.5,27.796,16.516,27.237,14.702z M24.539,14.22c-0.196,0-0.355-0.161-0.355-0.358
		c0-0.198,0.159-0.359,0.355-0.359c0.199,0,0.36,0.161,0.36,0.359C24.899,14.059,24.738,14.22,24.539,14.22z"/>
	<path d="M18.283,21.867c0.218-1.452,3.817-1.523,3.938,0.004c-1.651,0.166-1.884-0.077-1.927,0.682
		C20.208,22.228,20.576,21.83,18.283,21.867z"/>
</g>
<g>
	<path d="M-45.687,47.96L-45,55.812c0-2.637,0-5.274,0-7.912L-45.687,47.96z"/>
	<path d="M-42.02,78.397L-42.055,78c-0.334,0-0.667,0-1.004,0l0.129,1.481L-26,78c-4.029,0-7.728,0-11.476,0
		L-42.02,78.397z"/>
	<path d="M-8,58.461c0,3.826,0,7.65,0,11.477l0.477,5.442L-8,75.422c0,0.334,0,0.668,0,1.003l1.559-0.137L-8,58.461z
		"/>
	<path d="M-10.107,45.851L-10.094,46c0.329,0,0.67,0,1.004,0l-0.107-1.233L-23.291,46c3.984,0,7.605,0,11.477,0
		L-10.107,45.851z"/>
	<path d="M-25,46h-20v32h37V57V46H-25z M-9,77h-35V47h35V77z"/>
	<line x1="-29" y1="61" x2="-11" y2="61"/>
	<line x1="-29" y1="62" x2="-11" y2="62"/>
	<line x1="-29" y1="63" x2="-11" y2="63"/>
	<line x1="-29" y1="64" x2="-11" y2="64"/>
	<line x1="-29" y1="66" x2="-11" y2="66"/>
	<line x1="-29" y1="67" x2="-11" y2="67"/>
	<line x1="-29" y1="69" x2="-11" y2="69"/>
	<line x1="-29" y1="70" x2="-11" y2="70"/>
	<line x1="-29" y1="72" x2="-11" y2="72"/>
	<line x1="-40" y1="64" x2="-30" y2="64"/>
	<line x1="-40" y1="66" x2="-30" y2="66"/>
	<line x1="-40" y1="67" x2="-30" y2="67"/>
	<line x1="-40" y1="69" x2="-30" y2="69"/>
	<line x1="-40" y1="70" x2="-30" y2="70"/>
	<line x1="-40" y1="72" x2="-30" y2="72"/>
	<rect x="-40" y="60" width="10" height="3"/>
	<rect x="-40" y="52" width="28" height="6"/>
</g>
<g>
	<path d="M-15.99,13.111c-0.492-0.03-0.937,0.159-1.266,0.515c-0.346-0.007-0.732,0.059-1.13,0.205
		c-1.377-4.954-7.945-8.712-15.854-8.712c-2.793,0-5.421,0.465-7.709,1.287l-1.154-0.686l-3.205-2.16l0.398,4.482l0.014,0.283
		C-48.141,9.872-49.686,13-50.188,14H-53v4.749l4.407,1.589c1.413,1.949,3.486,3.574,6.313,4.647
		c2.07,1.991,3.283,4.486,2.895,5.377c-0.487,1.111,1.391,1.529,2.294,0.416c0.57-0.7,0.864-2.759,1.09-4.443
		c0.578,0.041,1.165,0.063,1.761,0.063c1.054,0,2.084-0.066,3.081-0.194c0.818,1.729,1.759,3.758,1.168,4.392
		c-0.425,0.612,0.688,0.915,1.521,0.596c0.891-0.3,2.042-4.446,3.149-6.565c4.347-1.905,7.212-5.165,7.212-8.867
		c0-0.317-0.03-0.63-0.072-0.94c0.141-0.063,0.278-0.113,0.411-0.144c-0.108,0.625,0.188,0.986,0.341,1.127
		c0.234,0.215,0.562,0.328,0.893,0.328c0.218,0,0.438-0.049,0.637-0.15c0.393-0.201,0.606-0.582,0.558-0.995
		c-0.035-0.304-0.193-0.588-0.445-0.818c0.391,0.145,0.816,0.561,0.998,1.198l0.963-0.273
		C-14.145,13.976-15.035,13.162-15.99,13.111z M-29.934,8.239c-1.107-0.181-5.77-0.362-7.23,0c0.059-0.897,0.015-0.549,0-1.446
		c0.888-0.406,6.217-0.293,7.23,0C-29.919,7.531-29.857,7.456-29.934,8.239z M-16.729,15.082c-0.097-0.059-0.066-0.229-0.025-0.355
		c0.009,0.004,0.018,0.007,0.026,0.011c0.253,0.109,0.382,0.264,0.405,0.328C-16.369,15.12-16.597,15.162-16.729,15.082z"/>
	<path d="M-45.438,11.611c-0.128,0-0.244,0.036-0.352,0.088l0.01,0.018l0.434,0.699l-0.821-0.016l-0.076,0.002
		c0,0.006-0.003,0.011-0.003,0.017c0,0.445,0.361,0.807,0.809,0.807c0.445,0,0.807-0.361,0.807-0.807
		C-44.631,11.973-44.992,11.611-45.438,11.611z"/>
	<circle cx="-33.686" cy="0.461" r="3.262"/>
</g>
<g>
	<path fill-rule="evenodd" clip-rule="evenodd" d="M77.457-19.6c-0.171-0.071-0.345-0.15-0.521-0.194
		c-0.229-0.057-0.414-0.185-0.591-0.331c-0.203-0.17-0.4-0.352-0.609-0.521c-0.312-0.249-0.627-0.492-0.942-0.738
		c0.048-0.049,0.093-0.099,0.139-0.148c0.049-0.047,0.095-0.099,0.143-0.149c0.035-0.033,0.062-0.073,0.09-0.114
		c0.051-0.069,0.105-0.139,0.175-0.189c0.082-0.065,0.164-0.129,0.236-0.203c0.037-0.039,0.072-0.074,0.107-0.114
		c0.035-0.039,0.075-0.07,0.12-0.1c0.034-0.021,0.066-0.046,0.101-0.066c0.04-0.024,0.061-0.063,0.082-0.104
		c0.031-0.059,0.039-0.125,0.058-0.186c0.027-0.088,0.036-0.182,0.05-0.271c0.012-0.074,0.034-0.146,0.056-0.216
		c0.01-0.026,0.025-0.048,0.037-0.071c0.005-0.014,0.019-0.014,0.031-0.018c0.048-0.019,0.101-0.025,0.152-0.037
		c0.062-0.017,0.123-0.019,0.187-0.008c0.05,0.009,0.095,0.002,0.144-0.009c0.031-0.01,0.057-0.023,0.07-0.058
		c0.016-0.03,0.036-0.059,0.051-0.089c0.019-0.039-0.003-0.102-0.057-0.116c-0.033-0.01-0.066-0.014-0.099-0.012
		c-0.051,0.004-0.1,0.006-0.147,0.017c-0.021,0.004-0.04,0.004-0.06-0.003c-0.069-0.014-0.136-0.036-0.206-0.044
		c-0.016,0-0.026-0.008-0.027-0.022c-0.009-0.042-0.019-0.084-0.026-0.125c-0.003-0.019,0-0.022,0.021-0.022
		c0.035,0,0.068,0.006,0.104,0.013c0.034,0.01,0.066,0.006,0.098-0.013c0.029-0.014,0.058-0.03,0.088-0.042
		c0.044-0.022,0.068-0.056,0.076-0.105c0.003-0.019,0.005-0.034,0.005-0.052c-0.001-0.023-0.013-0.043-0.035-0.052
		c-0.055-0.02-0.109-0.032-0.169-0.011c-0.027,0.011-0.058,0.018-0.086,0.024c-0.012,0.004-0.022,0.004-0.034,0.004
		c-0.018-0.002-0.022-0.006-0.018-0.025c0.018-0.057,0.02-0.115,0.02-0.175c0.002-0.017,0.003-0.035,0.01-0.053
		c0.033-0.096,0.065-0.192,0.093-0.29c0.016-0.063,0.038-0.125,0.062-0.187c0.03-0.083,0.052-0.168,0.074-0.254
		c0.016-0.064,0.033-0.125,0.055-0.188c0.028-0.085,0.048-0.174,0.082-0.257c0.056-0.145,0.108-0.289,0.174-0.428
		c0.037-0.086,0.067-0.178,0.097-0.266c0.019-0.05,0.04-0.098,0.053-0.148c0.025-0.092,0.036-0.187,0.042-0.281
		c0.003-0.111,0.014-0.221,0.031-0.329c0.016-0.109,0.027-0.218,0.03-0.329c0.003-0.049,0.014-0.097,0.025-0.145
		c0.018-0.082,0.033-0.164,0.019-0.249c-0.007-0.053-0.004-0.106-0.002-0.161c0.001-0.124-0.008-0.248-0.017-0.372
		c-0.003-0.031-0.009-0.063-0.021-0.092c-0.014-0.035-0.017-0.072-0.014-0.11c0.013-0.111,0.016-0.225-0.005-0.336
		c-0.012-0.072-0.01-0.145-0.025-0.217c-0.013-0.072-0.035-0.142-0.058-0.211c-0.032-0.104-0.065-0.208-0.097-0.312
		c-0.047-0.155-0.097-0.308-0.155-0.458c-0.025-0.063-0.052-0.127-0.086-0.187c-0.025-0.04-0.04-0.083-0.065-0.122
		c-0.068-0.11-0.137-0.223-0.204-0.334c-0.031-0.052-0.067-0.102-0.11-0.147c-0.065-0.067-0.113-0.147-0.151-0.233
		c-0.025-0.053-0.059-0.099-0.104-0.139c-0.013-0.012-0.027-0.02-0.043-0.027c-0.064-0.025-0.128-0.053-0.192-0.076
		c-0.078-0.027-0.157-0.055-0.241-0.077c-0.018-0.004-0.036-0.011-0.054-0.018c-0.082-0.025-0.165-0.041-0.251-0.052
		c-0.118-0.015-0.237-0.034-0.357-0.05c-0.018-0.002-0.03-0.011-0.048-0.018c-0.112-0.061-0.229-0.109-0.354-0.134
		c-0.081-0.018-0.164-0.019-0.248,0c-0.061,0.013-0.122,0.022-0.183,0.046c-0.025,0.009-0.056,0.013-0.084,0.018
		c-0.089,0.012-0.18,0.015-0.27,0.016c-0.057,0-0.114,0.002-0.171,0.004c-0.031,0.002-0.061,0.011-0.089,0.022
		c-0.061,0.021-0.124,0.037-0.183,0.063c-0.011,0.003-0.019,0.007-0.027,0.009c-0.027,0.009-0.043,0.028-0.045,0.057
		c0,0.005-0.001,0.011-0.002,0.016c-0.005,0.026-0.005,0.026-0.03,0.031c-0.018,0.004-0.038,0.005-0.055,0.011
		c-0.018,0.004-0.022,0.012-0.013,0.028c0.014,0.027,0.027,0.055,0.045,0.079c0.021,0.025,0.054,0.04,0.086,0.046
		c0.057,0.013,0.112,0.034,0.164,0.06c0.066,0.032,0.133,0.032,0.202,0.021c0.056-0.01,0.108-0.021,0.163-0.031
		c0.053-0.011,0.104,0.002,0.162,0.008c-0.007,0.01-0.009,0.014-0.013,0.016c-0.048,0.042-0.074,0.097-0.103,0.154
		c-0.006,0.012-0.012,0.023-0.019,0.035c-0.016,0.039-0.049,0.057-0.088,0.063c-0.109,0.018-0.215,0.052-0.322,0.071
		c-0.088,0.016-0.175,0.008-0.261-0.005c-0.027-0.005-0.051-0.017-0.073-0.033c-0.027-0.019-0.056-0.03-0.084-0.039
		c-0.026-0.008-0.052-0.02-0.074-0.034c-0.036-0.023-0.076-0.036-0.118-0.042c-0.079-0.008-0.159-0.015-0.238-0.028
		c-0.039-0.006-0.078-0.015-0.114-0.031c-0.075-0.036-0.158-0.057-0.239-0.083c-0.018-0.006-0.033-0.007-0.052-0.004
		c-0.046,0.009-0.092,0.018-0.139,0.027c0.009-0.045,0.013-0.09,0.024-0.135c0.064-0.252-0.019-0.529,0.099-0.786
		c0.039-0.088,0.067-0.166,0.146-0.224c0.099-0.069,0.203-0.132,0.285-0.217c0.195-0.202,0.43-0.366,0.558-0.63
		c0.059-0.122,0.144-0.23,0.211-0.348c0.054-0.094,0.109-0.189,0.152-0.287c0.046-0.098,0.078-0.201,0.114-0.302
		c0.012-0.034,0.011-0.08,0.035-0.102c0.113-0.101,0.016-0.165-0.042-0.224c-0.021-0.021-0.089,0.004-0.15,0.01
		c-0.005-0.105-0.024,0.055-0.183,0.03C73.19-34.23,73.192-34,73.19-34c-0.087,0-0.173,0-0.258,0c0.022,0-0.084-0.157-0.138-0.118
		c-0.142,0.101-0.297,0.044-0.448,0.133c-0.14,0.081-0.284,0.089-0.423,0.169c-0.123,0.07-0.257,0.091-0.358,0.182
		c-0.098,0.086-0.185,0.122-0.316,0.115c-0.068-0.003-0.136-0.014-0.203-0.014c-0.001-0.039,0.006-0.081,0.015-0.117
		c0.029-0.127,0.061-0.254,0.078-0.384c0.013-0.101,0.03-0.203,0.041-0.303c0.007-0.051,0.025-0.084,0.072-0.108
		c0.067-0.032,0.134-0.068,0.201-0.1c0.096-0.048,0.183-0.108,0.27-0.173c0.13-0.097,0.25-0.204,0.365-0.316
		c0.057-0.054,0.098-0.121,0.141-0.185c0.017-0.021,0.021-0.047,0.027-0.072c0.046-0.181,0.074-0.365,0.113-0.547
		c0.022-0.111,0.045-0.223,0.058-0.338c0.007-0.074,0.008-0.149,0.015-0.224c0.012-0.096,0.033-0.189,0.063-0.28
		c0.011-0.038,0.021-0.076,0.033-0.114c0.008-0.038,0.021-0.073,0.039-0.106c0.044-0.083,0.056-0.171,0.055-0.262
		c-0.001-0.068-0.005-0.133-0.009-0.202c-0.01-0.125-0.041-0.245-0.096-0.36c-0.103-0.23-0.22-0.455-0.339-0.678
		c-0.029-0.055-0.058-0.111-0.082-0.168c-0.027-0.067-0.066-0.128-0.11-0.185c-0.082-0.105-0.161-0.213-0.245-0.318
		c-0.06-0.075-0.119-0.147-0.201-0.204c-0.111-0.078-0.204-0.178-0.305-0.268c-0.082-0.07-0.156-0.146-0.233-0.219
		c-0.047-0.046-0.102-0.08-0.156-0.112c-0.062-0.036-0.125-0.071-0.188-0.106c-0.064-0.038-0.127-0.074-0.189-0.109
		c-0.06-0.034-0.116-0.072-0.171-0.116c-0.022-0.019-0.046-0.036-0.068-0.051c-0.355-0.22-0.72-0.42-1.082-0.625
		c-0.164-0.092-0.337-0.164-0.51-0.236c-0.079-0.034-0.159-0.07-0.235-0.109c-0.1-0.047-0.2-0.086-0.302-0.122
		c-0.087-0.031-0.172-0.064-0.26-0.091c-0.181-0.054-0.36-0.11-0.544-0.151c-0.137-0.03-0.271-0.063-0.407-0.097
		c-0.071-0.019-0.149-0.028-0.223-0.039c-0.105-0.017-0.209-0.042-0.315-0.052c-0.113-0.011-0.223-0.015-0.333-0.001
		c-0.106,0.014-0.212,0.009-0.315-0.005c-0.085-0.011-0.17-0.022-0.256-0.031c-0.077-0.008-0.156-0.008-0.235,0.003
		c-0.189,0.024-0.374,0.049-0.563,0.07c-0.138,0.015-0.278,0.02-0.412-0.023c-0.068,0-0.102-0.038-0.132-0.093
		c-0.047-0.09-0.075-0.185-0.111-0.275c-0.024-0.067-0.051-0.134-0.073-0.202c-0.013-0.023-0.026-0.044-0.049-0.063
		c-0.093-0.09-0.205-0.151-0.322-0.199c-0.013-0.005-0.025-0.009-0.036-0.013c-0.065-0.026-0.135-0.002-0.171,0.058
		c-0.029,0.048-0.038,0.102-0.022,0.158c0.015,0.058,0.029,0.115,0.044,0.172c0.006,0.018,0.006,0.036,0.01,0.054
		c0.014,0.087-0.041,0.151-0.083,0.216c-0.014,0.021-0.039,0.029-0.061,0.039c-0.073,0.031-0.147,0.059-0.22,0.094
		c-0.159,0.082-0.328,0.151-0.479,0.256c-0.098,0.069-0.19,0.142-0.283,0.216c-0.054,0.043-0.113,0.078-0.171,0.117
		c-0.031,0.022-0.059,0.05-0.078,0.086c-0.021,0.041-0.043,0.081-0.068,0.12c-0.048,0.074-0.074,0.16-0.103,0.242
		c-0.04,0.114-0.071,0.23-0.129,0.337c-0.028,0.052-0.053,0.107-0.042,0.169c0.003,0.017-0.002,0.034-0.003,0.051
		c-0.004,0.024-0.014,0.041-0.033,0.057c-0.063,0.049-0.122,0.101-0.181,0.154c-0.034,0.029-0.059,0.066-0.08,0.105
		c-0.012,0.02-0.015,0.043-0.015,0.066c0,0.054,0.006,0.107,0.037,0.153c0.015,0.019,0.016,0.042,0.015,0.065
		c-0.011,0.053-0.015,0.107-0.025,0.159c-0.019,0.074-0.004,0.141,0.024,0.209c0.018,0.048,0.042,0.095,0.07,0.138
		c0.025,0.04,0.065,0.057,0.107,0.074c0.152,0.065,0.313,0.098,0.472,0.144c0.067,0.021,0.134,0.039,0.202,0.059
		c0.023,0.007,0.047,0.011,0.073,0.009c0.088-0.007,0.175-0.014,0.264-0.021c0.035-0.003,0.066-0.021,0.1-0.03
		c0.049-0.013,0.049-0.013,0.045,0.038c-0.013,0.127-0.042,0.25-0.071,0.372c-0.015,0.061-0.024,0.121-0.043,0.179
		c-0.016,0.042-0.04,0.074-0.076,0.1c-0.185,0.123-0.368,0.251-0.563,0.36c-0.067,0.038-0.131,0.084-0.199,0.12
		c-0.028,0.014-0.059,0.025-0.091,0.03c-0.04,0.007-0.081,0.018-0.117,0.037c-0.024,0.009-0.048,0.008-0.071,0
		c-0.121-0.043-0.24-0.091-0.354-0.151c-0.07-0.038-0.147-0.068-0.214-0.11c-0.016-0.008-0.028-0.015-0.044-0.011
		c-0.057,0.011-0.116,0.015-0.172,0.03c-0.021,0.007-0.037,0.013-0.038,0.041c-0.003,0.029-0.024,0.05-0.044,0.069
		c-0.031,0.032-0.061,0.069-0.084,0.105c-0.026,0.04-0.029,0.082-0.021,0.124c0.005,0.025,0.01,0.051,0.007,0.076
		c-0.003,0.026,0.006,0.047,0.02,0.069c0.044,0.067,0.104,0.113,0.183,0.136c0.058,0.02,0.109,0.043,0.165,0.068
		c0.053,0.027,0.114,0.042,0.171,0.065c0.1,0.039,0.177,0.106,0.232,0.198c0.046,0.081,0.109,0.147,0.178,0.214
		c0.002,0.004,0.008,0.008,0.013,0.011c0.085,0.05,0.169,0.104,0.262,0.141c0.03,0.014,0.06,0.016,0.092,0.011
		c0.11-0.018,0.221-0.032,0.331-0.055c0.027-0.006,0.053-0.004,0.079,0.002c0.058,0.013,0.115,0.017,0.174,0.021
		c0.025,0.001,0.044-0.006,0.059-0.025c0.064-0.08,0.14-0.146,0.211-0.218c0.044-0.047,0.103-0.079,0.158-0.115
		c0.166-0.108,0.344-0.2,0.516-0.295c-0.217,0.109-0.342,0.295-0.373,0.535c-0.027,0.191,0.088,0.346,0.248,0.364
		c0.038,0.002,0.091-0.02,0.114-0.049c0.05-0.057,0.025-0.204-0.031-0.267c-0.063,0.04-0.018,0.089-0.016,0.136
		c0.001,0.028-0.011,0.056-0.015,0.083c-0.026-0.004-0.055-0.004-0.074-0.015c-0.103-0.055-0.141-0.16-0.077-0.259
		c0.064-0.097,0.147-0.182,0.235-0.259c0.061-0.053,0.146-0.103,0.229-0.055c0.08,0.045,0.071,0.139,0.068,0.219
		c-0.017,0.33-0.108,0.643-0.227,0.95c-0.106,0.276-0.205,0.557-0.311,0.844c0.038,0.005,0.058,0.008,0.086,0.012
		c-0.04,0.111-0.079,0.212-0.11,0.317c-0.016,0.058-0.066,0.126,0.021,0.172c-0.021,0.055-0.115,0.102-0.013,0.16
		c0.006,0.002,0.009,0.018,0.006,0.022c-0.041,0.057-0.04,0.117-0.028,0.182c0.015,0.084,0.019,0.169,0.034,0.254
		c0.009,0.048,0.044,0.096,0.042,0.142s0.013,0.06,0.044,0.081c0.016,0.012,0.037,0.055,0.031,0.063
		c-0.055,0.063-0.014,0.114,0.019,0.168c-0.017,0.019-0.036,0.036-0.056,0.055c0.02,0.01,0.037,0.017,0.04,0.019
		c-0.001,0.045-0.003,0.078-0.003,0.111c0.008,0.013,0,0.024-0.009,0.034c-0.007,0.014-0.012,0.027-0.018,0.04
		c0.058,0.029,0.079,0.094,0.048,0.132c-0.063,0.077-0.122,0.157-0.184,0.237c-0.009,0.017-0.016,0.04-0.017,0.06
		c-0.011,0.087-0.02,0.176-0.02,0.263c-0.001,0.029,0.022,0.058,0.032,0.087c0.015,0.043,0.035,0.087,0.039,0.131
		c0.007,0.146-0.004,0.292,0.011,0.436c0.009,0.099,0.05,0.193,0.062,0.293c0.007,0.033-0.017,0.082-0.041,0.105
		c-0.191,0.179-0.39,0.35-0.581,0.529c-0.06,0.056-0.049,0.122,0.01,0.178c0.035,0.034,0.079,0.061,0.124,0.096
		c-0.042,0.045-0.084,0.091-0.127,0.133c-0.152,0.148-0.127,0.338,0.071,0.416c0.189,0.076,0.367,0.164,0.534,0.279
		c0.039,0.027,0.086,0.063,0.126,0.061c0.065-0.003,0.102,0.024,0.148,0.057c0.041,0.029,0.16,0.011,0.191-0.022
		c-0.027-0.136-0.134-0.197-0.237-0.261c-0.141-0.088-0.28-0.175-0.417-0.269c-0.028-0.017-0.056-0.084-0.044-0.094
		c0.033-0.036,0.086-0.084,0.126-0.079c0.129,0.017,0.26,0.039,0.37,0.133c0.135,0.114,0.229,0.096,0.35-0.052
		c-0.203-0.077-0.397-0.165-0.58-0.291c0.124-0.132,0.229-0.269,0.358-0.371c0.094-0.074,0.147-0.147,0.154-0.263
		c0.004-0.037,0.029-0.072,0.047-0.106c0.021-0.039,0.054-0.073,0.068-0.113c0.02-0.052,0.029-0.108,0.041-0.158
		c0.151,0.026,0.305,0.057,0.456,0.081c0.07,0.011,0.141,0.011,0.209,0.015c0.032,0.004,0.059,0.007,0.087,0.004
		c0.037-0.005,0.074-0.014,0.105-0.02c-0.009,0.112-0.015,0.204-0.024,0.296c-0.004,0.041-0.012,0.083-0.025,0.12
		c-0.029,0.08-0.066,0.155-0.094,0.234c-0.022,0.074-0.034,0.151-0.055,0.228c-0.034,0.146-0.068,0.291-0.106,0.436
		c-0.02,0.073-0.003,0.13,0.062,0.172c0.023,0.015,0.039,0.04,0.074,0.079c-0.065-0.002-0.107-0.004-0.156-0.008
		c0.002,0.043-0.008,0.091,0.009,0.12c0.04,0.063,0.096,0.115,0.14,0.174c0.019,0.023,0.022,0.054,0.033,0.08
		c0.009,0.018,0.017,0.041,0.03,0.048c0.01,0.005,0.034-0.012,0.049-0.023c0.028-0.026,0.053-0.061,0.086-0.08
		c0.176-0.104,0.207-0.233,0.089-0.397c-0.05-0.064-0.061-0.131-0.04-0.205c0.019-0.064,0.038-0.129,0.063-0.191
		c0.015-0.035,0.041-0.064,0.068-0.103c0.058,0.117,0.109,0.221,0.165,0.322c0.111,0.194,0.26,0.359,0.412,0.521
		c0.034,0.034,0.05,0.085,0.073,0.13c-0.034,0.01-0.068,0.009-0.101,0.021c-0.12,0.049-0.259,0.064-0.383,0.108
		c-0.07,0.025-0.136,0.076-0.193,0.127c-0.17,0.15-0.348,0.292-0.494,0.462c-0.065,0.077-0.115,0.166-0.17,0.25
		c-0.145-0.115-0.311-0.207-0.554-0.216c-0.368-0.015-0.732-0.227-1.096-0.352c-0.474-0.162-0.936-0.288-1.451-0.15
		c-0.45,0.118-0.919,0.165-1.384,0.203c-0.864,0.069-0.866,0.058-1.065-0.778c-0.011-0.046-0.061-0.346-0.086-0.377
		c-0.191-0.222-0.074-0.363-0.529-0.412c-0.457-0.049-0.369,0.359-0.554,0.538c0.024,0.029,0.097,0.002,0.121,0.031
		c0.117-0.004,0.208-0.046,0.345-0.052c-0.381,0.794-0.52,0.953-1.258,0.672c-0.359-0.137-0.691-0.349-1.042-0.512
		c-0.163-0.077-0.342-0.164-0.515-0.165c-1.082-0.012-2.166-0.009-3.248,0.01c-0.35,0.006-0.701,0.078-1.052,0.12
		c0.005,0.043,0.012,0.086,0.016,0.13c0.3-0.013,0.597-0.025,0.896-0.038c0.004,0.021,0.008,0.042,0.011,0.063
		c-0.438,0.103-0.874,0.205-1.312,0.308c0.008,0.027,0.016,0.057,0.023,0.084c0.534-0.078,1.069-0.156,1.719-0.251
		c-0.666,0.214-1.224,0.393-1.782,0.572c0.008,0.031,0.017,0.062,0.024,0.093c0.477-0.111,0.953-0.223,1.428-0.334
		c0.002,0.013,0.006,0.024,0.008,0.036c-0.439,0.212-0.877,0.426-1.315,0.639c0.015,0.036,0.034,0.071,0.051,0.105
		c0.396-0.163,0.791-0.325,1.187-0.488c0.008,0.012,0.012,0.023,0.019,0.035c-0.34,0.231-0.678,0.462-1.017,0.692
		c0.018,0.028,0.036,0.056,0.055,0.084c0.397-0.227,0.793-0.454,1.188-0.681c0.009,0.019,0.021,0.037,0.029,0.055
		c-0.287,0.24-0.577,0.479-0.911,0.758c0.496-0.116,0.913-0.221,1.332-0.307c0.092-0.018,0.2,0.017,0.291,0.055
		c0.647,0.267,1.289,0.55,1.941,0.807c0.48,0.191,0.974,0.353,1.573,0.565c-0.56,0.512-1.011,0.921-1.491,1.361
		c0.846,0.226,1.646,0.18,2.441,0.001c0.279-0.064,0.49-0.204,0.443-0.583c-0.102-0.793,0.213-0.873,0.82-0.847
		c0.217,0.009,0.435,0.041,0.649,0.028c0.804-0.05,1.633,0.175,2.41-0.236c0.088-0.047,0.281,0.057,0.402,0.133
		c0.107,0.071,0.182,0.195,0.275,0.299c0.067-0.079,0.116-0.137,0.167-0.195c0.124,0.25,0.238,0.475,0.352,0.699
		c0.038-0.009,0.071-0.019,0.108-0.029c-0.008-0.254-0.013-0.507-0.021-0.777c0.183,0.334,0.352,0.642,0.521,0.949
		c0.043-0.021,0.084-0.042,0.127-0.063c-0.01-0.049-0.023-0.103-0.034-0.152c0.062-0.059,0.115-0.121,0.133-0.22
		c0.011-0.062,0.035-0.122,0.061-0.181c0.11,0.146,0.214,0.28,0.315,0.413c0.02-0.01,0.039-0.019,0.058-0.028
		c0.021,0.077,0.042,0.154,0.059,0.232c0.04,0.182,0.064,0.367,0.097,0.55c0.002,0.008,0.003,0.018,0.007,0.026
		c0.124,0.249,0.102,0.298-0.172,0.373c-0.018,0.073-0.06,0.148-0.048,0.215c0.014,0.076,0.082,0.142,0.109,0.217
		c0.015,0.038-0.005,0.092-0.019,0.137c-0.014,0.043-0.045,0.08-0.059,0.124c-0.079,0.263,0.188,0.415,0.204,0.654
		c0.01,0.133,0.096,0.259,0.135,0.394c0.035,0.119,0.064,0.238,0.08,0.36c0.025,0.204,0.023,0.406,0.088,0.607
		c0.006,0.019,0.007,0.038,0.011,0.056c-0.06,0.006-0.118,0.004-0.155-0.022c-0.249-0.186-0.533-0.276-0.819-0.373
		c-0.287-0.1-0.572-0.212-0.867-0.285c-0.308-0.079-0.598-0.024-0.84,0.204c-0.127,0.118-0.264,0.222-0.399,0.328
		c-0.389,0.309-0.714,0.664-0.863,1.152c-0.043,0.141-0.152,0.209-0.285,0.238c-0.061,0.016-0.124,0.029-0.187,0.04
		c0.093-0.138,0.195-0.271,0.285-0.414c0.265-0.419,0.473-0.874,0.732-1.297c0.187-0.301,0.416-0.578,0.589-0.813
		c0.207,0.022,0.396,0.088,0.552,0.045c0.243-0.077,0.482-0.2,0.688-0.354c0.112-0.088,0.293-0.13,0.284-0.389
		c-0.009-0.255-0.034-0.471-0.187-0.668c-0.108-0.08-0.218-0.159-0.325-0.238c-0.182-0.01-0.363-0.021-0.544-0.036
		c-0.032-0.001-0.064-0.02-0.097-0.027c-0.049-0.01-0.114-0.04-0.146-0.02c-0.336,0.21-0.682,0.092-0.997-0.013
		c-0.603-0.202-1.223-0.3-1.847-0.382c-0.205-0.027-0.42,0.017-0.631,0.034c-0.164,0.014-0.324,0.045-0.487,0.054
		c-0.388,0.021-0.697,0.152-0.848,0.541c-0.067,0.174-0.136,0.352-0.219,0.519c-0.032,0.061-0.11,0.135-0.171,0.14
		c-0.204,0.019-0.415-0.008-0.617,0.017c-0.238,0.027-0.473,0.092-0.709,0.141c-0.135,0.026-0.27,0.053-0.404,0.08
		c-0.029,0.038-0.059,0.076-0.086,0.116c0.033,0.196,0.104,0.393,0.095,0.584c-0.019,0.388,0.103,0.594,0.61,0.72
		c-0.223-0.245-0.266-0.507-0.158-0.779c0.028-0.063,0.117-0.152,0.18-0.154c0.3-0.004,0.6,0.017,0.919,0.028
		c-0.099,0.178-0.187,0.35-0.282,0.516c-0.145,0.243-0.289,0.486-0.441,0.725c-0.079,0.128-0.051,0.238,0.049,0.326
		c0.191,0.165,0.383,0.341,0.598,0.473c0.133,0.081,0.289,0.202,0.52,0.099c-0.098-0.112-0.176-0.22-0.267-0.305
		c-0.206-0.191-0.225-0.313-0.079-0.473c0.287-0.322,0.574-0.649,0.85-0.984c0.088-0.105,0.172-0.229,0.21-0.359
		c0.063-0.223,0.196-0.364,0.375-0.437c0.383,0.221,0.751,0.434,1.074,0.622c-0.168,0.229-0.364,0.497-0.56,0.766
		c0.007,0.004,0.03,0.02,0.067,0.042c-0.138,0.064-0.209,0.146-0.235,0.297c-0.021,0.126-0.129,0.238-0.196,0.356
		c-0.058,0.103-0.14,0.203-0.163,0.314c-0.045,0.21-0.176,0.311-0.359,0.396c-0.122,0.058-0.213,0.183-0.314,0.277
		c-0.014,0.013-0.023,0.025-0.037,0.043c-0.037-0.039-0.073-0.075-0.111-0.11c-0.09,0.182-0.058,0.27,0.151,0.378
		c0.123,0.063,0.238,0.072,0.343-0.065c0.066-0.09,0.177-0.163,0.281-0.213c0.292-0.138,0.555-0.304,0.782-0.545
		c0.312-0.334,0.66-0.633,0.994-0.949c0.022,0.01,0.044,0.021,0.066,0.031c-0.2,0.483-0.393,0.97-0.458,1.484
		c-0.015,0.032-0.032,0.062-0.046,0.093c-0.158,0.058-0.318,0.113-0.476,0.172c-0.264,0.097-0.533,0.181-0.818,0.137
		c-0.33-0.051-0.661-0.108-0.985-0.187c-0.369-0.091-0.729-0.207-1.095-0.313c-0.105-0.032-0.213-0.052-0.319-0.064
		c-0.021-0.027-0.038-0.059-0.064-0.08c-0.026-0.022-0.05-0.047-0.073-0.071c-0.117-0.12-0.209-0.259-0.301-0.4
		c-0.073-0.107-0.135-0.224-0.199-0.34c-0.063-0.116-0.142-0.221-0.24-0.31c-0.091-0.088-0.186-0.174-0.245-0.288
		c-0.005-0.012-0.015-0.018-0.022-0.028c-0.07-0.077-0.141-0.154-0.21-0.232c-0.048-0.052-0.087-0.108-0.106-0.179
		c-0.014-0.056-0.038-0.111-0.061-0.162c-0.038-0.082-0.079-0.159-0.121-0.238c-0.039-0.07-0.077-0.141-0.12-0.208
		c-0.038-0.059-0.081-0.113-0.123-0.17c-0.028-0.04-0.059-0.078-0.089-0.119c-0.042-0.053-0.085-0.107-0.126-0.159
		c-0.103-0.143-0.186-0.297-0.267-0.452c-0.037-0.067-0.064-0.138-0.086-0.212c-0.02-0.067-0.037-0.137-0.066-0.2
		c-0.068-0.145-0.122-0.293-0.18-0.443c-0.039-0.108-0.089-0.215-0.137-0.321c-0.029-0.061-0.068-0.119-0.104-0.178
		c-0.017-0.027-0.037-0.053-0.062-0.073c-0.046-0.039-0.093-0.074-0.145-0.107c-0.088-0.062-0.181-0.12-0.27-0.181
		c-0.13-0.089-0.271-0.148-0.422-0.188c-0.109-0.028-0.223-0.033-0.337-0.035c-0.197-0.005-0.396-0.017-0.596-0.009
		c-0.168,0.007-0.332,0.037-0.496,0.063c-0.067,0.013-0.136,0.028-0.203,0.037c-0.093,0.015-0.189,0.022-0.282,0.041
		c-0.044,0.01-0.089,0.02-0.132,0.029c0.052-0.231,0.083-0.465,0.083-0.708c0.002-0.528,0.023-1.052,0.168-1.567
		c0.099-0.354,0.18-0.713,0.249-1.074c0.037-0.194,0.094-0.377,0.238-0.509c0.203-0.186,0.418-0.363,0.641-0.526
		c0.432-0.315,0.649-0.734,0.67-1.264c0.009-0.181,0.025-0.363,0.048-0.543c0.027-0.247,0.159-0.423,0.368-0.558
		c0.125-0.08,0.242-0.181,0.34-0.291c0.268-0.298,0.528-0.597,0.832-0.862c0.188-0.166,0.364-0.343,0.551-0.511
		c0.371,0.202,0.691,0.497,1.123,0.589c0.092,0.019,0.174,0.121,0.245,0.197c0.302,0.324,0.618,0.617,1.104,0.612
		c0.009,0.052,0.024,0.091,0.022,0.129c-0.022,0.593-0.043,1.187-0.076,1.778c-0.021,0.387-0.111,0.753-0.405,1.039
		c-0.038,0.036-0.044,0.103-0.073,0.172c0.178,0.007,0.353,0.082,0.441-0.094c0.117-0.225,0.213-0.461,0.297-0.702
		c0.051-0.157,0.063-0.327,0.092-0.492c0.076-0.423,0.242-0.813,0.461-1.228c0.246,0.735,0.547,1.422,0.076,2.153
		c0.152,0.019,0.342,0.136,0.387-0.094c0.051-0.268,0.232-0.529,0.082-0.819c-0.006-0.011-0.002-0.027,0-0.042
		c0.014-0.568,0.035-1.137,0.041-1.705c0.004-0.152,0.051-0.208,0.203-0.186c0.395,0.057,0.787,0.039,1.173-0.068
		c0.048-0.014,0.132,0.024,0.164,0.065c0.249,0.308,0.498,0.614,0.724,0.938c0.093,0.13,0.177,0.308,0.17,0.459
		c-0.024,0.498-0.13,0.981-0.491,1.366c-0.044,0.043-0.073,0.097-0.118,0.16c0.181,0.074,0.356,0.071,0.433-0.052
		c0.136-0.215,0.225-0.464,0.317-0.706c0.083-0.213,0.144-0.434,0.213-0.653c0.035,0.005,0.069,0.011,0.106,0.015
		c0.001,0.268,0.038,0.541-0.007,0.801c-0.043,0.261-0.167,0.51-0.255,0.764c0.255,0.112,0.334,0.076,0.393-0.186
		c0.015-0.058,0.047-0.111,0.06-0.17c0.033-0.137,0.075-0.275,0.087-0.415c0.047-0.457,0.085-0.916,0.116-1.374
		c0.005-0.061-0.048-0.125-0.075-0.188c-0.06-0.137-0.197-0.29-0.169-0.407c0.09-0.401,0.236-0.79,0.363-1.182
		c0.018,0.005,0.036,0.08,0.053,0.085C61.35-34.284,61.364-34,61.381-34c0.052,0,0.097,0,0.097,0C61.553-34,61-34.511,61-34.693
		c0-0.041,0-0.08,0-0.121c0-0.645-0.17-1.061-0.717-1.375c-0.449-0.255-0.699-0.572-1.23-0.608
		c-0.363-0.023-0.646,0.004-1.008,0.042c-0.406,0.043-0.769,0.104-1.164,0.192c-0.443,0.098-0.853,0.247-1.293,0.352
		c-0.074,0.018-0.133,0.017-0.204,0.021c0.811-0.782,1.604-1.584,2.349-2.435c0.22-0.249,0.497-0.454,0.762-0.658
		c0.154-0.12,0.319-0.096,0.484,0.036c0.312,0.25,0.646,0.475,1.067,0.518c0.058,0.006,0.121,0.041,0.169,0.077
		c0.188,0.142,0.371,0.295,0.56,0.437c0.086,0.066,0.181,0.138,0.261,0.041c0.089,0.02,0.185,0.072,0.233,0.044
		c0.094-0.055,0.118-0.167,0.082-0.279c-0.018-0.047-0.035-0.094-0.057-0.14c-0.195-0.424-0.461-0.816-0.551-1.288
		c-0.002-0.016-0.016-0.033-0.019-0.05c-0.052-0.177-0.111-0.354-0.149-0.535c-0.038-0.165-0.132-0.224-0.297-0.158
		c-0.019,0.007-0.047-0.004-0.071-0.008c-0.04-0.007-0.085-0.029-0.122-0.024c-0.122,0.016-0.161-0.06-0.138-0.146
		c0.069-0.227,0.022-0.452,0.009-0.678c-0.004-0.051,0.013-0.104,0.019-0.155c0.009-0.042,0.025-0.118,0.021-0.12
		c-0.092-0.029-0.186-0.049-0.281-0.069c-0.004,0.042-0.009,0.084-0.011,0.126c-0.003,0.032,0.011,0.072-0.006,0.093
		c-0.133,0.193-0.261,0.391-0.409,0.569c-0.064,0.078-0.163,0.061-0.23-0.037c-0.038-0.055-0.087-0.105-0.14-0.147
		c-0.089-0.068-0.197-0.061-0.223,0.049c-0.042,0.182-0.182,0.207-0.316,0.262c-0.148,0.061-0.298,0.12-0.436,0.197
		c-0.001-0.073,0-0.152,0.045-0.215c0.025,0.041,0.099,0.175,0.143,0.084c0.032-0.065,0.035-0.148,0.042-0.218
		c0.013-0.129,0.021-0.259,0.028-0.389c0.018-0.27,0.034-0.54,0.08-0.806c0.028-0.156,0.061-0.352,0.174-0.473
		c0.063-0.071,0.147-0.083,0.236-0.071c0.098,0.012,0.192,0.032,0.293,0.038c0.291,0.017,0.578,0,0.866,0.083
		c0.271,0.08,0.483,0.232,0.675,0.438c0.002-0.086-0.011-0.167-0.049-0.247c-0.038-0.082-0.096-0.153-0.139-0.233
		c-0.047-0.082-0.089-0.16-0.155-0.228c-0.098-0.098-0.218-0.156-0.327-0.237c-0.084-0.063-0.018-0.115,0.03-0.18
		c0.07-0.09,0.124-0.209,0.087-0.324c-0.021-0.066-0.076-0.115-0.139-0.067c-0.059,0.044-0.095,0.091-0.174,0.102
		c-0.089,0.01-0.187-0.014-0.274-0.028c-0.069-0.011-0.137-0.017-0.203-0.017c-0.002,0.018-0.008,0.028-0.014,0.042
		c-0.017,0.03-0.032,0.059-0.048,0.089c-0.02,0.034-0.029,0.072-0.048,0.105c-0.011,0.02-0.02,0.032-0.02,0.055
		c-0.118-0.003-0.23-0.033-0.349-0.038c-0.083-0.004-0.146,0.025-0.196-0.06c-0.026-0.042-0.039-0.089-0.069-0.129
		c-0.029-0.042-0.076-0.056-0.124-0.068c-0.088-0.022-0.175-0.042-0.263-0.071c-0.096-0.033-0.191-0.074-0.29-0.105
		c-0.046-0.014-0.103-0.034-0.149-0.013c-0.029,0.013-0.048,0.041-0.071,0.063c-0.059,0.061-0.14,0.104-0.222,0.129
		c-0.111,0.036-0.223,0.018-0.336,0.007c-0.105-0.01-0.187,0.016-0.282,0.052c-0.098,0.036-0.229,0.054-0.303,0.132
		c-0.027,0.03-0.041,0.069-0.065,0.101c-0.029,0.039-0.076,0.058-0.122,0.073c-0.108,0.034-0.253,0.034-0.343,0.114
		c-0.023,0.019-0.037,0.043-0.066,0.057c-0.043,0.02-0.098,0.022-0.145,0.028c-0.195,0.025-0.383,0.083-0.577,0.115
		c-0.095,0.017-0.188,0.027-0.286,0.035c-0.092,0.009-0.177,0.028-0.254,0.084c-0.061,0.043-0.111,0.066-0.187,0.079
		c-0.073,0.012-0.134,0.037-0.2,0.064c-0.098,0.04-0.201,0.049-0.302,0.056c-0.135,0.009-0.269,0.024-0.402,0.043
		c-0.033,0.006,0.053,0.086,0.053,0.086c0.047,0.017,0.114,0.014,0.163,0.014c0.064-0.001,0.129,0.005,0.195-0.001
		c0.084-0.006,0.164-0.024,0.25-0.037c0.084-0.013,0.181-0.029,0.258-0.064c0.076-0.035,0.154-0.071,0.232-0.103
		c0.068-0.027,0.131-0.058,0.203-0.071c0.064-0.01,0.132-0.013,0.197-0.016c0.072-0.004,0.149-0.013,0.223-0.005
		c0.008,0.101-0.082,0.187-0.117,0.272c-0.021,0.044-0.029,0.08-0.029,0.128c0,0.029-0.014,0.093,0,0.118
		c0.015,0.027,0.043,0.018,0.07,0.017c0.012,0.049-0.012,0.112,0.005,0.159c0.045-0.01,0.088-0.04,0.136-0.048
		c0.004,0.047-0.005,0.096,0,0.14c0.006,0.03,0.025,0.086,0.054,0.102c0.026,0.015,0.075-0.003,0.104-0.009
		c-0.003,0.048,0.004,0.081,0.022,0.123c0.013,0.03,0.003,0.036,0.032,0.042c0.038,0.006,0.082-0.008,0.119-0.005
		c0.006,0.036-0.021,0.114,0.01,0.14c0.016,0.011,0.074,0,0.098,0.001c0.07,0.001,0.137-0.037,0.207-0.034
		c0.012,0.039-0.012,0.171,0.055,0.167c0.004,0.06,0,0.106,0.023,0.164c0.012,0.025,0.018,0.105,0.037,0.121
		c0.004,0.004,0.041-0.002,0.053-0.001c0.004,0.023,0.45,0.043,0.447,0.065C56.543-41.111,57-41.068,57-41.027
		c0,0.023,0,0.047,0,0.07c0,0.047-0.463,0.108-0.448,0.153c0.062-0.018-0.11-0.075-0.058-0.114c0.035-0.028-0.045-0.062-0.014-0.097
		c0.027-0.032-0.005-0.07,0.029-0.095c0.002,0.031-0.043,0.055-0.055,0.083c-0.016,0.039-0.029,0.081-0.035,0.124
		c-0.01,0.065-0.023,0.13-0.025,0.197c0,0.029,0,0.044,0.007,0.071c0.012,0.044,0.001,0.095,0.019,0.136
		c0.072-0.036,0.121-0.112,0.175-0.171c0.034-0.038,0.065-0.088,0.095-0.131c0.045-0.062,0.06-0.142,0.096-0.208
		c-0.004,0.021-0.006,0.041-0.006,0.062c-0.002,0.026-0.012,0.046-0.015,0.069c-0.007,0.042,0.001,0.092,0.001,0.134
		c-0.001,0.082-0.002,0.163,0.004,0.244c0.004,0.04-0.004,0.083,0.004,0.123c0.006,0.04,0.021,0.08,0.027,0.121
		c0.023-0.017,0.045-0.056,0.061-0.081c0.022-0.042,0.037-0.087,0.067-0.126c0.075-0.107,0.105-0.237,0.167-0.354
		c0.002,0.045,0.002,0.091,0.002,0.137c0,0.067,0,0.123,0.015,0.188c0.017,0.072,0.017,0.148,0.03,0.223
		c0.008,0.036,0.021,0.069,0.031,0.104c-0.293,0.197-0.583,0.397-0.863,0.611c-1.166,0.89-2.422,1.629-3.729,2.286
		c-0.36,0.18-0.729,0.332-1.148,0.296c-0.111-0.009-0.227,0.018-0.338,0.04c-0.049,0.01-0.094,0.048-0.139,0.077
		c-0.088,0.054-0.166,0.125-0.26,0.163c-0.377,0.154-0.764,0.291-1.141,0.45c-0.518,0.22-1.045,0.338-1.609,0.257
		c-0.548-0.079-1.1-0.14-1.648-0.217c-0.171-0.025-0.327-0.004-0.474,0.078c-0.282,0.156-0.579,0.256-0.89,0.338
		c-0.457,0.116-0.882,0.311-1.167,0.708c-0.146,0.208-0.259,0.438-0.384,0.66c-0.23,0.412-0.455,0.829-0.688,1.241
		c-0.068,0.122-0.16,0.21-0.318,0.224c-0.169,0.014-0.276,0.125-0.319,0.294c-0.042,0.168-0.104,0.319-0.305,0.356
		c-0.038,0.008-0.071,0.048-0.122,0.084c0.074-0.012,0.127-0.02,0.182-0.027c0,0.009,0.002,0.018,0.005,0.028
		c-0.053,0.029-0.106,0.06-0.176,0.098c0.054,0.007,0.097,0.01,0.149,0.016c-0.08,0.033-0.143,0.057-0.207,0.082
		c0.004,0.01,0.008,0.019,0.011,0.029c0.089-0.014,0.181-0.026,0.288-0.041c-0.057,0.057-0.105,0.105-0.15,0.153
		c0.083-0.008,0.18-0.013,0.219-0.063c0.093-0.123,0.209-0.207,0.342-0.28c0.25-0.137,0.4-0.343,0.451-0.63
		c0.027-0.14,0.088-0.279,0.163-0.401c0.221-0.366,0.446-0.732,0.694-1.079c0.102-0.143,0.264-0.241,0.402-0.354
		c0.021-0.019,0.063-0.017,0.113-0.029c-0.015,0.042-0.02,0.064-0.03,0.082c-0.257,0.41-0.469,0.838-0.608,1.306
		c-0.131,0.433-0.422,0.781-0.707,1.125c-0.318,0.382-0.688,0.697-1.156,0.888c-0.063,0.026-0.117,0.098-0.152,0.162
		c-0.053,0.093-0.074,0.206-0.128,0.299c-0.196,0.344-0.392,0.689-0.603,1.023c-0.371,0.59-0.791,1.143-1.299,1.625
		c-0.283,0.269-0.557,0.548-0.832,0.827c-0.037,0.04-0.076,0.106-0.07,0.153c0.031,0.203,0.014,0.388-0.132,0.546
		c0.208,0.106,0.396,0.202,0.627,0.317c-0.006-0.128,0.002-0.227-0.021-0.318c-0.023-0.091-0.021-0.164,0.037-0.24
		c0.146-0.182,0.277-0.373,0.426-0.551c0.471-0.56,0.955-1.108,1.413-1.678c0.472-0.584,1.069-1,1.719-1.353
		c-0.092,0.36-0.181,0.728-0.279,1.09c-0.26,0.959-0.556,1.904-1.054,2.774c-0.127,0.22-0.226,0.458-0.322,0.694
		c-0.021,0.051-0.004,0.153,0.037,0.192c0.125,0.124,0.179,0.258,0.121,0.431c0.213,0.105,0.418,0.21,0.664,0.333
		c-0.026-0.166-0.024-0.306-0.072-0.427c-0.076-0.188-0.089-0.373-0.026-0.558c0.195-0.582,0.377-1.171,0.6-1.742
		c0.433-1.118,1.042-2.128,1.911-2.969c0.415-0.401,0.811-0.823,1.209-1.239c0.096-0.099,0.178-0.212,0.285-0.338
		c0.09,0.153,0.168,0.28,0.24,0.409c0.142,0.258,0.334,0.458,0.596,0.601c0.146,0.08,0.303,0.134,0.457,0.191
		c-0.124,0.011-0.249,0.021-0.373,0.032c-0.01,0.001-0.021,0.003-0.03,0.008c-0.146,0.061-0.292,0.122-0.439,0.182
		c-0.083,0.035-0.168,0.068-0.255,0.104c0.02,0.029,0.029,0.044,0.043,0.064c-0.114,0.056-0.219,0.108-0.334,0.166
		c0.037,0.031,0.061,0.05,0.088,0.074c-0.079,0.065-0.152,0.126-0.238,0.199c0.07,0.021,0.117,0.035,0.201,0.061
		c-0.33,0.172-0.615,0.344-0.691,0.732c0.054-0.021,0.086-0.035,0.15-0.062c-0.079,0.268-0.152,0.511-0.227,0.755
		c0.014,0.004,0.023,0.009,0.034,0.012c0.058-0.048,0.113-0.099,0.169-0.149c0.012,0.007,0.021,0.013,0.033,0.019
		c-0.066,0.19-0.133,0.38-0.202,0.578c0.028,0.009,0.054,0.019,0.099,0.036c-0.152,0.357-0.301,0.705-0.459,1.077
		c0.072-0.039,0.119-0.064,0.165-0.088c0.011,0.006,0.021,0.014,0.032,0.02c-0.055,0.147-0.111,0.29-0.162,0.437
		c-0.016,0.044-0.026,0.093-0.024,0.138c0.002,0.089,0.021,0.176,0.019,0.266c-0.002,0.042-0.035,0.083-0.057,0.125
		c0.018,0.005,0.036,0.009,0.053,0.016c0.041-0.038,0.08-0.021,0.131-0.068c0.014,0.1,0.027,0.326,0.041,0.326
		c0.012,0,0.021,0,0.032,0c0.03,0,0.063-0.183,0.097-0.258c0.034,0.077,0.063,0.114,0.09,0.174C44.967-26.087,45-26.103,45-26.104
		c0-0.089,0-0.182,0-0.276c0,0.033,0.049,0.057,0.082,0.098c0.004-0.065,0.006-0.112,0.01-0.172
		c0.021,0.025,0.028,0.042,0.041,0.052c0.013,0.01,0.027,0.018,0.049,0.031c0.006-0.032,0.012-0.053,0.012-0.075
		c-0.018-0.297,0.062-0.543,0.363-0.667c0.072-0.031,0.143-0.067,0.219-0.088c0.092-0.024,0.185-0.037,0.278-0.052
		c0.067-0.011,0.134-0.02,0.206-0.017c0.005,0,0.012-0.003,0.016-0.003c-0.072,0.152-0.145,0.304-0.229,0.45
		c-0.243,0.421-0.502,0.833-0.777,1.233c-0.221,0.317-0.479,0.606-0.717,0.912c-0.095,0.124-0.169,0.252-0.093,0.423
		c0.007,0.015,0.002,0.029,0.005,0.043c-0.064-0.017-0.131-0.026-0.195-0.048c-0.059-0.021-0.118-0.038-0.178-0.048
		c-0.152-0.026-0.304-0.048-0.455-0.072c-0.117-0.021-0.233-0.046-0.352-0.067c-0.145-0.026-0.279-0.085-0.42-0.127
		c-0.063-0.019-0.131-0.036-0.194-0.051c-0.017-0.004-0.038-0.002-0.055,0.004c-0.099,0.038-0.196,0.27-0.293,0.314
		C42.221-24.258,42.121-24,42.009-24c-0.011,0-0.022,0-0.035,0c-0.009,0-0.009-0.285,0.005-0.326
		c0.016-0.055,0.005-0.203-0.023-0.254c-0.021-0.042-0.056-0.118-0.094-0.142c-0.055-0.035-0.114-0.075-0.176-0.035
		c-0.021,0.012-0.041,0.012-0.063,0.023c-0.085,0.047-0.122,0.117-0.142,0.205c-0.012,0.061-0.02,0.121-0.027,0.184
		c-0.004,0.034-0.001,0.069-0.001,0.102c0,0.025-0.001,0.051-0.003,0.073c-0.002,0.026-0.018,0.043-0.041,0.056
		c-0.042,0.018-0.078,0.043-0.117,0.063c-0.037,0.016-0.074,0.03-0.112,0.04c-0.062,0.02-0.124,0.032-0.186,0.05
		c-0.023,0.005-0.044,0.013-0.064,0.024c-0.052,0.026-0.104,0.053-0.154,0.081c-0.028,0.017-0.058,0.024-0.089,0.021
		c-0.037-0.004-0.074-0.008-0.113-0.014c-0.049-0.011-0.097-0.011-0.143,0.014c-0.036,0.017-0.055,0.041-0.055,0.081
		c0,0.013-0.002,0.025-0.004,0.038c-0.014,0.113-0.008,0.227,0.018,0.336c0.018,0.084,0.035,0.163,0.043,0.242
		c0.003,0.023,0.008,0.049,0.018,0.069c0.04,0.087,0.099,0.16,0.179,0.215c0.031,0.022,0.063,0.044,0.095,0.063
		c0.027,0.018,0.041,0.038,0.047,0.065c0.013,0.076,0.035,0.146,0.023,0.223c-0.004,0.021-0.002,0.044,0,0.064
		c0.019,0.142,0.016,0.282,0.02,0.421c0,0.07,0.005,0.141,0.006,0.212c0.002,0.063,0,0.124,0.022,0.184
		c0.006,0.015,0.007,0.026,0.01,0.043c0.011,0.063,0.03,0.125,0.058,0.183c0.023,0.05,0.031,0.096,0.035,0.149
		c0.002,0.043,0.002,0.082,0.002,0.12c0,0.078,0.01,0.155-0.004,0.234c-0.022,0.127-0.046,0.255-0.061,0.386
		c-0.01,0.098-0.018,0.197-0.01,0.296c0.008,0.09,0.031,0.173,0.087,0.248c0.035,0.045,0.075,0.081,0.131,0.106
		c0.059,0.026,0.116,0.059,0.171,0.095c0.049,0.029,0.094,0.064,0.139,0.098c0.045,0.03,0.092,0.047,0.146,0.04
		c0.039-0.002,0.078-0.002,0.115-0.002c0.076-0.006,0.143-0.032,0.201-0.08c0.023-0.021,0.051-0.036,0.079-0.044
		c0.078-0.022,0.157-0.04,0.235-0.062c0.037-0.011,0.074-0.029,0.109-0.045c0.012-0.006,0.023-0.02,0.029-0.03
		c0.021-0.058,0.041-0.114,0.033-0.178c-0.005-0.036-0.007-0.074-0.005-0.11c0.003-0.076,0.012-0.152,0.017-0.229
		c0.005-0.073,0.006-0.145-0.006-0.22c-0.008-0.051-0.008-0.105-0.002-0.161c0.006-0.076,0.018-0.15,0.029-0.227
		c0.01-0.063,0.023-0.126,0.035-0.188c0.004-0.021,0.012-0.039,0.031-0.045c0.068-0.02,0.135-0.045,0.21-0.045
		c0.095,0,0.188,0.021,0.274,0.062c0.106,0.044,0.21,0.1,0.314,0.151c0.177,0.083,0.352,0.168,0.541,0.217
		c0.023,0.008,0.047,0.021,0.069,0.035c0.085,0.047,0.169,0.098,0.255,0.143c0.087,0.043,0.176,0.081,0.276,0.086
		c0.015,0,0.03,0.003,0.044,0.005c0.105,0.019,0.213,0.026,0.32,0.017c0.066-0.005,0.125,0.018,0.176,0.056
		c0.065,0.048,0.128,0.101,0.191,0.15c0.1,0.076,0.204,0.141,0.318,0.192c0.078,0.036,0.157,0.076,0.234,0.11
		c0.094,0.044,0.182,0.096,0.285,0.107c0.026,0.005,0.053,0.009,0.08,0.015c0.117,0.024,0.234,0.05,0.352,0.063
		c0.07,0.009,0.142,0.021,0.179,0.095c0.002,0.005,0.008,0.007,0.012,0.011c0.077,0.077,0.155,0.157,0.235,0.237
		c0.056,0.056,0.113,0.107,0.168,0.161c0.035,0.039,0.072,0.076,0.099,0.121c0.097,0.163,0.19,0.33,0.29,0.495
		c0.039,0.067,0.088,0.129,0.132,0.193c0.03,0.039,0.063,0.078,0.093,0.12c0.063,0.084,0.119,0.178,0.186,0.261
		c0.079,0.101,0.148,0.204,0.189,0.328c0.028,0.085,0.063,0.169,0.106,0.249c0.062,0.112,0.086,0.233,0.086,0.36
		c0,0.019,0.005,0.038,0.005,0.058c-0.114-0.004-0.229-0.004-0.348,0.011c-0.278,0.035-0.555,0.114-0.822,0.194
		c-0.284,0.085-0.551,0.132-0.838,0c-0.157-0.071-0.225-0.155-0.242-0.327c-0.043-0.426-0.252-0.741-0.664-0.905
		c-0.034-0.014-0.063-0.061-0.076-0.099c-0.113-0.316-0.363-0.486-0.699-0.468c-0.496,0.024-0.783,0.341-0.787,0.849
		c-0.005,0.321-0.01,0.646-0.057,0.964c-0.074,0.515,0.055,0.985,0.258,1.444c0.196,0.448,0.499,0.834,0.748,1.249
		c0.223,0.367,0.367,0.783,0.528,1.186c0.268,0.665,0.498,1.355,0.979,1.901c0.385,0.437,0.826,0.824,1.255,1.219
		c0.312,0.289,0.663,0.531,1.064,0.683c0.063,0.023,0.131,0.034,0.194,0.056c-0.088,0.167-0.151,0.347-0.207,0.531
		c-0.054,0.174-0.018,0.261,0.146,0.335c0.465,0.214,0.954,0.336,1.466,0.356c0.176,0.01,0.254-0.055,0.284-0.23
		c0.024-0.129,0.028-0.259,0.05-0.389c0.011-0.074,0.019-0.158,0.033-0.235c0.068,0.005,0.135,0.022,0.205,0.026
		c0.337,0.021,0.627,0.129,0.895,0.337c0.518,0.397,1.039,0.79,1.577,1.162c0.206,0.143,0.457,0.224,0.695,0.313
		c0.132,0.048,0.275,0.029,0.372-0.095c0.136-0.171,0.233-0.357,0.309-0.553c0.205-0.011,0.41-0.029,0.607-0.069
		c0.189-0.039,0.249-0.16,0.194-0.347c-0.085-0.287-0.161-0.581-0.277-0.86c-0.146-0.354-0.296-0.704-0.374-1.083
		c-0.078-0.383-0.205-0.764-0.175-1.165c0.021-0.25,0.038-0.496,0.14-0.73c0.066-0.153,0.172-0.252,0.342-0.265
		c0.475-0.041,0.945-0.125,1.425-0.116c0.39,0.002,0.78-0.036,1.165-0.119c0.461-0.103,0.868-0.327,1.275-0.55
		c0.399-0.217,0.802-0.429,1.206-0.634c0.087-0.044,0.189-0.063,0.288-0.082c0.064-0.011,0.114,0.021,0.127,0.093
		c0.046,0.263,0.107,0.526,0.135,0.79c0.063,0.631,0.01,1.258-0.096,1.883c-0.085,0.501-0.152,1.005-0.219,1.51
		c-0.134-0.061-0.259-0.131-0.395-0.186c-0.503-0.202-1.016-0.209-1.532-0.03c-0.598,0.203-0.975,0.642-1.237,1.184
		c-0.202-0.052-0.385-0.1-0.591-0.152c-0.046,0.251,0.05,0.397,0.232,0.43c-0.103,0.463-0.199,0.902-0.3,1.356
		c0.293,0.045,0.408-0.138,0.545-0.302c0.14-0.166,0.29-0.341,0.519-0.056c-0.154,0.116-0.307,0.227-0.469,0.347
		c0.46,0.204,0.661-0.164,0.935-0.351c0.016,0.025,0.031,0.051,0.046,0.077c-0.101,0.101-0.2,0.202-0.341,0.343
		c0.06,0.034,0.117,0.104,0.17,0.099c0.247-0.022,0.504-0.065,0.588-0.349c0.072-0.255,0.254-0.318,0.477-0.324
		c0.521-0.022,1.044-0.035,1.565-0.053c0.017,0.021,0.03,0.045,0.045,0.066c-0.167,0.133-0.335,0.261-0.528,0.411
		c0.079,0.039,0.129,0.078,0.186,0.091c0.257,0.045,0.954-0.382,1.037-0.63c0.024-0.076,0.049-0.151,0.078-0.238
		c0.997,0.572,1.96,0.325,2.922-0.03c-0.338,0-0.673,0.038-1.01,0.048c-0.542,0.017-1.077-0.02-1.533-0.362
		c-0.015-0.013-0.033-0.025-0.049-0.037c0.057-0.045,0.091-0.107,0.084-0.213c-0.009-0.127-0.041-0.257-0.067-0.385
		c-0.025-0.123-0.024-0.244,0.069-0.347c0.126-0.132,0.187-0.297,0.21-0.471c0.062-0.469,0.134-0.934,0.317-1.375
		c0.069-0.166,0.121-0.338,0.193-0.499c0.055-0.124,0.089-0.128,0.191-0.044c0.176,0.145,0.348,0.293,0.518,0.443
		c0.421,0.375,0.821,0.771,1.156,1.228c0.116,0.159,0.211,0.329,0.223,0.53c0.008,0.135,0.05,0.253,0.139,0.355
		c0.128,0.15,0.16,0.324,0.111,0.512c-0.017,0.065-0.048,0.124-0.073,0.188c-0.046,0.12-0.017,0.184,0.104,0.225
		c0.035,0.013,0.07,0.023,0.107,0.023c0.319-0.002,0.641,0,0.96-0.014c0.127-0.006,0.257-0.036,0.381-0.077
		c0.161-0.054,0.216-0.146,0.176-0.31c-0.062-0.252-0.159-0.49-0.339-0.682c-0.082-0.088-0.126-0.184-0.132-0.3
		c-0.011-0.223-0.011-0.444-0.033-0.667c-0.041-0.383-0.209-0.717-0.44-1.014c-0.404-0.518-0.712-1.09-0.996-1.678
		c-0.265-0.538-0.539-1.071-0.62-1.676c-0.056-0.4-0.106-0.798-0.143-1.197c-0.009-0.087,0.023-0.21,0.084-0.264
		c0.225-0.19,0.41-0.407,0.56-0.662c0.109-0.188,0.211-0.236,0.488-0.173c0.138,0.03,0.173,0.095,0.186,0.239
		c0.013,0.123,0.032,0.249,0.072,0.37c0.033,0.104,0.11,0.111,0.171,0.021c0.056-0.087,0.104-0.181,0.134-0.278
		c0.038-0.118,0.054-0.245,0.08-0.375c0.216,0.002,0.422,0.021,0.622,0.11c0.166,0.073,0.341,0.122,0.511,0.186
		c0.03,0.014,0.067,0.043,0.08,0.073c0.082,0.186,0.221,0.271,0.425,0.263c0.085-0.007,0.115,0.047,0.117,0.127
		c0,0.078,0.006,0.156,0.017,0.234c0.055,0.446,0.132,0.895,0.158,1.341c0.028,0.497,0.092,0.987,0.212,1.469
		c0.131,0.531,0.313,1.042,0.646,1.484c0.438,0.585,1.035,0.779,1.729,0.553c0.987-0.318,1.682-0.95,2.06-1.921
		c0.075-0.19,0.148-0.379,0.236-0.565c0.056-0.118,0.113-0.128,0.228-0.084c0.038,0.016,0.084,0.014,0.125,0.021
		c0.006-0.047,0.023-0.097,0.013-0.137c-0.071-0.246-0.198-0.458-0.384-0.633c-0.033-0.034-0.092-0.035-0.138-0.052
		c-0.016,0.047-0.049,0.096-0.043,0.139c0.017,0.118-0.008,0.223-0.062,0.323c-0.29,0.556-0.623,1.087-1.048,1.551
		c-0.222,0.24-0.484,0.431-0.796,0.545c-0.618,0.228-1.154-0.024-1.36-0.646c-0.146-0.433-0.141-0.872-0.028-1.31
		c0.072-0.277,0.148-0.55,0.225-0.832c0.465,0.306,0.963,0.52,1.533,0.513c0.582-0.011,1.013-0.335,1.429-0.691
		c-0.154,0.024-0.299,0.069-0.438,0.12c-0.355,0.124-0.718,0.201-1.096,0.195c-0.162-0.002-0.321-0.028-0.472-0.146
		c0.059,0.008,0.098,0.012,0.138,0.017c0.045,0.006,0.089,0.02,0.133,0.02c0.593-0.004,1.106-0.218,1.541-0.607
		c0.096-0.088,0.151-0.216,0.227-0.323c-0.013-0.014-0.026-0.027-0.04-0.039c-0.042,0.023-0.09,0.041-0.129,0.071
		c-0.146,0.1-0.295,0.202-0.439,0.311c-0.251,0.187-0.523,0.265-0.84,0.211c-0.39-0.069-0.747-0.198-1.05-0.461
		c-0.166-0.145-0.26-0.321-0.245-0.55c0.008-0.105,0.001-0.208,0.001-0.314c-0.002-0.272-0.031-0.538-0.079-0.803
		c0.176,0.085,0.358,0.154,0.541,0.22c0.587,0.216,1.153,0.461,1.639,0.87c0.246,0.206,0.513,0.385,0.786,0.555
		c0.237,0.146,0.474,0.281,0.602,0.545c0.018,0.032,0.046,0.061,0.071,0.087c0.074,0.071,0.16,0.082,0.243,0.02
		c0.042-0.035,0.09-0.073,0.117-0.118c0.2-0.339,0.57-0.509,0.81-0.808c0.058-0.07,0.107-0.124,0.066-0.179
		c0.05-0.152,0.087-0.28,0.127-0.407c0.006-0.02,0.004-0.048,0.015-0.055c0.067-0.053,0.09-0.104,0.021-0.167
		c-0.073-0.062-0.122-0.009-0.171,0.04c-0.057,0.054-0.105,0.116-0.17,0.158c-0.137,0.093-0.279,0.183-0.428,0.261
		c-0.047,0.024-0.122,0.03-0.171,0.012c-0.139-0.058-0.27-0.128-0.4-0.2c-0.06-0.032-0.11-0.082-0.151-0.114
		c0.103-0.023,0.208-0.028,0.285-0.077c0.145-0.096,0.266-0.224,0.406-0.326c0.103-0.075,0.148-0.178,0.17-0.29
		c0.014-0.071-0.003-0.15-0.004-0.248c-0.042,0.005-0.105,0.006-0.168,0.019c-0.053,0.01-0.108,0.032-0.161,0.044
		c-0.258,0.057-0.311,0.029-0.404-0.213c-0.096-0.26-0.195-0.515-0.385-0.727c-0.06-0.066-0.094-0.159-0.154-0.263
		c0.061,0.018,0.084,0.024,0.108,0.034c0.376,0.172,0.75,0.345,1.128,0.508c0.227,0.103,0.407,0.243,0.529,0.459
		c0.08,0.144,0.173,0.277,0.256,0.418c0.058,0.094,0.177,0.113,0.226,0.022c0.044-0.079,0.097-0.109,0.183-0.109
		c0.024,0,0.053-0.016,0.073-0.027c0.087-0.067,0.162-0.16,0.261-0.198c0.254-0.105,0.249-0.341,0.301-0.546
		c0.01-0.042-0.051-0.126-0.098-0.15c-0.063-0.029-0.106-0.122-0.126-0.058C75.164-17.869,75.153-18,75.145-18
		c-0.014,0-0.025,0-0.04,0c-0.005,0-0.034,0.02-0.015-0.035c0.026-0.084,0.1,0.043,0.152,0.06c0.097,0.036,0.148,0.026,0.178-0.061
		c0.041-0.121,0.013-0.172-0.097-0.212c-0.17-0.059-0.343-0.111-0.518-0.165c-0.063-0.019-0.132-0.013-0.197-0.024
		c-0.117-0.023-0.242-0.032-0.352-0.076c-0.219-0.088-0.426-0.195-0.639-0.293c-0.407-0.182-0.802-0.378-1.127-0.695
		c-0.206-0.201-0.406-0.416-0.699-0.505c-0.023-0.006-0.04-0.069-0.042-0.107c-0.023-0.257-0.041-0.518-0.061-0.776
		c-0.013-0.145-0.029-0.29-0.032-0.433c-0.003-0.154,0.012-0.306,0.012-0.458c0-0.131,0.063-0.198,0.188-0.177
		c0.066,0.011,0.133,0.036,0.188,0.072c0.385,0.255,0.713,0.569,1.012,0.921c0.12,0.144,0.266,0.271,0.426,0.37
		c0.437,0.268,0.912,0.452,1.4,0.607c0.397,0.131,0.761,0.329,1.049,0.638c0.159,0.172,0.296,0.363,0.444,0.545
		c0.093,0.114,0.174,0.232,0.145,0.395c-0.007,0.03,0.031,0.09,0.063,0.101c0.029,0.013,0.087-0.009,0.114-0.036
		c0.078-0.076,0.084-0.214,0.033-0.323c-0.037-0.08-0.074-0.164-0.092-0.25c-0.023-0.093,0.02-0.123,0.111-0.098
		c0.028,0.009,0.057,0.024,0.063,0.026c-0.021,0.063-0.064,0.125-0.05,0.149c0.029,0.049,0.1,0.104,0.143,0.098
		c0.089-0.015,0.192-0.049,0.258-0.109c0.09-0.08,0.15-0.192,0.225-0.293c0.052-0.071,0.116-0.136,0.156-0.213
		C77.612-19.487,77.592-19.546,77.457-19.6z M57.783-40.67c0.005,0.029,0,0.056,0.001,0.084c0,0.004,0.002,0.009,0.003,0.013
		c-0.01,0.006-0.019,0.013-0.027,0.019c0-0.013,0-0.024,0.003-0.038C57.766-40.614,57.762-40.656,57.783-40.67z M57.396-40.39
		c0.006-0.034,0.021-0.065,0.028-0.1c0.009-0.048,0.011-0.097,0.015-0.145c0.004,0.027,0.01,0.06,0.016,0.086
		c0.006,0.022,0.018,0.04,0.021,0.062c0.002,0.024,0.002,0.043,0.007,0.066c0.004,0.015,0.005,0.03,0.008,0.044
		c-0.038,0.024-0.074,0.049-0.112,0.074C57.391-40.332,57.391-40.36,57.396-40.39z M48.959-29.127c0,0.003,0.002,0.006,0.002,0.009
		c0.028,0.718,0.059,1.436,0.082,2.153c0.002,0.109-0.043,0.222-0.062,0.332c-0.015,0.087-0.033,0.176-0.036,0.266
		c-0.005,0.143,0.021,0.292,0,0.431c-0.005,0.033-0.012,0.064-0.016,0.096c-0.021,0.021-0.041,0.044-0.063,0.063
		c-0.011-0.025-0.03-0.045-0.039-0.073c-0.027-0.094-0.1-0.174-0.153-0.261c-0.034-0.052-0.083-0.098-0.103-0.154
		c-0.128-0.377-0.242-0.762-0.379-1.134c-0.084-0.227-0.052-0.462-0.094-0.691c-0.003-0.021,0.004-0.046,0.012-0.066
		c0.123-0.242,0.238-0.487,0.367-0.724c0.05-0.088,0.129-0.151,0.25-0.163C48.809-29.052,48.889-29.087,48.959-29.127z
		 M47.752-27.753c0.285,0.269,0.33,0.626,0.453,0.949c0.069,0.183,0.117,0.376,0.175,0.563c0.014,0.047,0.034,0.097,0.028,0.141
		c-0.018,0.12,0.029,0.192,0.11,0.28c0.06,0.064,0.11,0.135,0.166,0.202c-0.01,0.008-0.021,0.015-0.031,0.023
		c-0.027,0.021-0.047,0.052-0.073,0.076c-0.055-0.079-0.086-0.176-0.145-0.251c-0.2-0.256-0.32-0.55-0.42-0.852
		c-0.095-0.291-0.188-0.58-0.269-0.874C47.723-27.575,47.75-27.667,47.752-27.753z M47.906-24.876
		c-0.07,0.055-0.14,0.114-0.212,0.168c-0.099,0.075-0.185,0.161-0.263,0.256c-0.023,0.028-0.048,0.063-0.078,0.083
		c-0.109,0.08-0.221,0.166-0.345,0.227c-0.031,0.016-0.062,0.024-0.097,0.028c-0.088,0.007-0.176,0.013-0.264,0.021
		c-0.069,0.006-0.141,0.016-0.211,0.021c-0.135,0.013-0.269,0-0.404-0.002c-0.096,0-0.191-0.008-0.287,0.004
		c-0.094,0.011-0.186,0.022-0.279,0.011c-0.049-0.004-0.098-0.002-0.148-0.002c-0.115,0-0.232-0.009-0.348-0.037
		c0.003-0.004,0.002-0.008,0.008-0.015c0.072-0.077,0.118-0.179,0.17-0.273c0.077-0.146,0.138-0.3,0.224-0.438
		c0.369-0.596,0.741-1.19,1.121-1.779c0.146-0.227,0.292-0.464,0.556-0.584c0.05-0.022,0.094-0.074,0.128-0.12
		c0.059-0.075,0.114-0.151,0.171-0.229c0.021,0.003,0.041-0.002,0.064,0.004c0.1,0.025,0.146,0.062,0.174,0.148
		c0.025,0.078,0.05,0.156,0.073,0.235c0.138,0.438,0.277,0.877,0.416,1.316c0.011,0.03,0.026,0.064,0.048,0.087
		c0.105,0.121,0.217,0.239,0.325,0.358c-0.05,0.054-0.108,0.099-0.151,0.156c-0.072,0.091-0.156,0.168-0.244,0.241
		C48.005-24.947,47.954-24.915,47.906-24.876z M47.98-20.586c0.024-0.042,0.049-0.084,0.092-0.11
		c0.047-0.031,0.089-0.067,0.137-0.096c0.046-0.026,0.101-0.046,0.146-0.076c0.133-0.082,0.277-0.143,0.42-0.202
		c0.215-0.091,0.426-0.189,0.633-0.297c0.139-0.065,0.279-0.133,0.418-0.2c0.221-0.1,0.436-0.218,0.633-0.362
		c0.105-0.076,0.216-0.149,0.333-0.211c0.052-0.028,0.103-0.06,0.151-0.092c0.082-0.054,0.164-0.111,0.242-0.168
		c0.027-0.019,0.054-0.04,0.078-0.064c0.074-0.066,0.145-0.139,0.221-0.206c0.069-0.061,0.14-0.122,0.212-0.175
		c0.067-0.05,0.14-0.071,0.227-0.034c0.062,0.022,0.115,0.053,0.163,0.097c0.086,0.08,0.188,0.136,0.284,0.198
		c0.054,0.034,0.104,0.076,0.154,0.118c0.038,0.032,0.072,0.072,0.108,0.11c0.02,0.021,0.04,0.043,0.055,0.066
		c0.029,0.035,0.053,0.08,0.084,0.116c0.117,0.14,0.243,0.27,0.348,0.421c0.008,0.013,0.02,0.027,0.027,0.04
		c0.078,0.138,0.158,0.276,0.232,0.412c0.025,0.045,0.042,0.092,0.057,0.14c0.033,0.093,0.06,0.189,0.09,0.283
		c0.002,0.012,0.003,0.024,0.006,0.035c-0.49,0.221-0.953,0.503-1.377,0.868c-0.639,0.55-1.274,1.105-1.803,1.769
		c-0.133,0.167-0.256,0.34-0.361,0.522c-0.008-0.041-0.018-0.08-0.039-0.115c-0.025-0.04-0.041-0.084-0.045-0.13
		c-0.006-0.063-0.034-0.118-0.059-0.171c-0.016-0.036-0.038-0.063-0.07-0.086c-0.032-0.021-0.066-0.042-0.1-0.064
		c-0.073-0.046-0.137-0.102-0.174-0.183c-0.012-0.029-0.029-0.054-0.051-0.076c-0.053-0.067-0.109-0.133-0.167-0.193
		c-0.062-0.064-0.112-0.135-0.152-0.213c-0.013-0.026-0.021-0.057-0.028-0.088c-0.021-0.097-0.048-0.189-0.143-0.242
		c-0.07-0.036-0.117-0.094-0.15-0.163c-0.057-0.111-0.128-0.216-0.207-0.313c-0.094-0.11-0.189-0.221-0.298-0.316
		c-0.056-0.047-0.103-0.101-0.137-0.165c-0.01-0.021-0.022-0.038-0.036-0.054c-0.037-0.051-0.074-0.101-0.107-0.154
		c-0.022-0.04-0.035-0.082-0.053-0.123C47.967-20.552,47.971-20.569,47.98-20.586z M49.66-13.323
		c-0.155-0.192-0.302-0.393-0.459-0.596c0.002-0.004,0.004-0.009,0.005-0.014c0.278,0.026,0.537,0.058,0.798,0.066
		c-0.072,0.186-0.141,0.373-0.201,0.563c-0.015,0.044-0.017,0.089-0.029,0.132C49.735-13.221,49.701-13.273,49.66-13.323z
		 M50.075-15.948c0.027-0.051,0.062-0.096,0.143-0.071c0.077,0.025,0.11,0.067,0.113,0.146c0,0.024,0.005,0.051,0,0.076
		c-0.044,0.323,0.008,0.64,0.071,0.953c0.004,0.025,0.002,0.055,0,0.085c-0.189-0.246-0.418-0.418-0.693-0.499
		c0.008-0.014,0.011-0.027,0.02-0.04C49.846-15.515,49.958-15.733,50.075-15.948z M48.088-18.994
		c-0.057-0.094-0.074-0.192-0.078-0.298c0-0.036-0.002-0.069-0.002-0.105c0-0.027-0.007-0.058,0.008-0.088
		c0.014,0.006,0.023,0.008,0.035,0.012c0.04,0.022,0.08,0.042,0.117,0.062c0.035,0.025,0.072,0.051,0.104,0.079
		c0.056,0.052,0.107,0.112,0.141,0.182c0.045,0.09,0.1,0.17,0.162,0.247c0.047,0.055,0.097,0.109,0.133,0.175
		c0.068,0.127,0.15,0.243,0.242,0.355c0.036,0.04,0.066,0.084,0.103,0.122c0.032,0.03,0.052,0.066,0.06,0.108
		c0.01,0.046,0.017,0.095,0.022,0.145c0.008,0.066,0.013,0.138,0.022,0.206c0.008,0.059,0.029,0.112,0.072,0.157
		c0.041,0.046,0.078,0.096,0.109,0.146c0.063,0.1,0.131,0.195,0.23,0.257c0.057,0.036,0.115,0.064,0.175,0.097
		c0.005,0.003,0.013,0.004,0.021,0.006c-0.01,0.038-0.025,0.071-0.031,0.11c-0.055,0.269-0.109,0.536-0.162,0.805
		c0.015-0.042,0.019-0.091-0.01-0.152c-0.054-0.113-0.12-0.224-0.206-0.311c-0.13-0.133-0.272-0.23-0.421-0.31
		c0.001-0.039-0.004-0.076-0.02-0.114c-0.018-0.039-0.041-0.076-0.061-0.114c-0.025-0.054-0.059-0.106-0.085-0.162
		c-0.03-0.064-0.058-0.132-0.085-0.199c-0.016-0.03-0.029-0.063-0.043-0.094c-0.025-0.06-0.043-0.118-0.07-0.176
		c-0.06-0.122-0.126-0.241-0.186-0.362c-0.02-0.043-0.035-0.087-0.047-0.131c-0.014-0.045-0.023-0.095-0.03-0.143
		c-0.021-0.114-0.058-0.222-0.116-0.322C48.156-18.867,48.125-18.931,48.088-18.994z M47.895-15.251
		c-0.235-0.296-0.465-0.599-0.693-0.899c0.242-0.187,0.549-0.251,0.869-0.193c0.011,0.046,0.023,0.09,0.068,0.117
		c0.041,0.023,0.078,0.057,0.099,0.099c0.039,0.088,0.104,0.134,0.194,0.146c0.008,0.002,0.013,0.002,0.021,0.004
		c0.043,0.018,0.087,0.01,0.123-0.019c0.053-0.038,0.103-0.074,0.107-0.146c0-0.018,0.01-0.031,0.016-0.048
		c0.004-0.005,0.006-0.01,0.009-0.015c0.138,0.032,0.275,0.066,0.413,0.095c0.096,0.017,0.199,0.017,0.295,0.004
		c0.074-0.011,0.123-0.041,0.148-0.083c-0.06,0.294-0.131,0.587-0.2,0.879c-0.077-0.002-0.15-0.014-0.235-0.002
		c-0.36,0.048-0.727,0.076-1.09,0.106C47.992-15.202,47.921-15.217,47.895-15.251z M51.55-10.632
		c-0.026,0.033-0.084,0.054-0.126,0.054c-0.207-0.004-0.348-0.152-0.474-0.281c-0.005-0.004-0.007-0.012-0.011-0.018
		c0.283-0.452,0.719-0.744,1.24-0.938c0.145-0.054,0.18-0.037,0.255,0.096c0.11,0.191,0.22,0.381,0.318,0.577
		c0.081,0.162,0.175,0.325,0.216,0.499c0.008,0.036,0.017,0.073,0.023,0.11c-0.281-0.17-0.589-0.284-0.929-0.28
		C51.875-10.809,51.688-10.793,51.55-10.632z M54.812-21.252c-0.231,0.045-0.455,0.104-0.675,0.174
		c-0.016-0.052-0.021-0.106-0.047-0.154c-0.014-0.023-0.025-0.047-0.037-0.069c-0.043-0.072-0.066-0.151-0.076-0.234
		c-0.008-0.054-0.011-0.109-0.026-0.161c-0.022-0.08-0.056-0.157-0.083-0.234c-0.021-0.065-0.047-0.128-0.065-0.194
		s-0.038-0.131-0.07-0.19c-0.054-0.097-0.108-0.196-0.159-0.295c-0.033-0.065-0.064-0.132-0.094-0.198
		c-0.021-0.046-0.024-0.099-0.018-0.148c0.005-0.034,0.023-0.058,0.057-0.07c0.064-0.025,0.128-0.048,0.188,0.013
		c0.002,0.002,0.006,0.002,0.008,0.002c0.105,0.058,0.205,0.125,0.291,0.208c0.078,0.076,0.156,0.156,0.215,0.249
		c0.044,0.067,0.082,0.138,0.133,0.2c0.07,0.086,0.126,0.179,0.184,0.273c0.113,0.189,0.225,0.379,0.338,0.568
		c0.04,0.062,0.086,0.121,0.129,0.184c0.01,0.015,0.02,0.027,0.031,0.041C54.959-21.278,54.885-21.267,54.812-21.252z
		 M71.104-33.133c0-0.001,0.001-0.001,0.001-0.002c0.001-0.012-0.006-0.022-0.008-0.034c0.01,0.004,0.02,0.008,0.028,0.012
		C71.116-33.148,71.112-33.141,71.104-33.133z M65.364-30.886c-0.061-0.135-0.044-0.192,0.078-0.275
		c0.128-0.085,0.266-0.159,0.395-0.242c0.054-0.032,0.114-0.064,0.143-0.114c0.049-0.083,0.119-0.117,0.207-0.149
		c0.012,0.082,0.053,0.133,0.14,0.107c0.08-0.023,0.187,0.003,0.227-0.113c0.072,0.025,0.1-0.018,0.106-0.083
		c0.003-0.029,0.004-0.058,0.005-0.088c0.002-0.107,0.08-0.162,0.174-0.127c0.013-0.097-0.111-0.151-0.075-0.273
		c0.021-0.074-0.021-0.168-0.041-0.253c-0.022-0.091-0.122-0.146-0.211-0.126c-0.021,0.005-0.046,0.001-0.066-0.006
		c-0.116-0.044-0.231-0.086-0.359-0.05c-0.045,0.011-0.098,0.015-0.141,0.001c-0.16-0.052-0.318-0.108-0.476-0.169
		c-0.308-0.121-0.646-0.146-0.942-0.314c-0.124-0.071-0.268-0.124-0.399-0.19c-0.049-0.024-0.088-0.072-0.131-0.106
		c-0.008-0.009,0.026-0.022,0.017-0.023C63.95-33.487,64-33.531,64-33.575c0-0.007,0-0.014,0-0.021c0,0.004-0.093,0.006-0.108,0.008
		c-0.021-0.035-0.054-0.065-0.073-0.086c-0.094-0.098-0.152-0.216-0.17-0.346c-0.059-0.413-0.054-0.827,0.035-1.231
		c0.088-0.403,0.214-0.797,0.319-1.197c0.056-0.207,0.06-0.414-0.034-0.612c-0.095-0.198-0.314-0.291-0.518-0.222
		c0.139-0.076,0.278-0.149,0.425-0.204c0.103-0.04,0.184-0.107,0.262-0.181c0.096-0.089,0.189-0.182,0.283-0.274
		c0.006-0.005,0.012-0.011,0.016-0.016c0.024-0.031,0.053-0.036,0.09-0.024c0.06,0.017,0.121,0.031,0.182,0.045
		c0.056,0.012,0.105,0.038,0.158,0.056c0.146,0.051,0.289,0.099,0.438,0.13c0.129,0.027,0.259,0.06,0.387,0.094
		c0.021,0.006,0.033,0.018,0.039,0.038c0.02,0.101,0.064,0.191,0.11,0.281c0.028,0.058,0.042,0.118,0.034,0.185
		c-0.016,0.19-0.022,0.379-0.042,0.57c-0.013,0.161-0.018,0.323-0.017,0.483c0.004,0.087,0.01,0.174,0.015,0.261
		c0.002,0.041-0.002,0.082-0.002,0.122c-0.001,0.024-0.009,0.037-0.034,0.039c-0.064,0.008-0.13,0.021-0.196,0.026
		c-0.088,0.006-0.179,0.011-0.268,0.021c-0.079,0.009-0.146-0.018-0.206-0.059c-0.095-0.065-0.195-0.119-0.297-0.175
		c-0.089-0.052-0.07-0.064-0.193-0.017c-0.025,0.01-0.054,0.017-0.081,0.027c-0.031,0.013-0.063,0.022-0.079,0.058
		c-0.007,0.014-0.026,0.016-0.039,0.021c-0.037,0.013-0.063,0.036-0.082,0.07c-0.019,0.036-0.038,0.069-0.059,0.103
		c-0.032,0.061-0.026,0.098,0.036,0.13c0.071,0.037,0.127,0.094,0.187,0.145c0.088,0.074,0.183,0.131,0.301,0.145
		c0.083,0.009,0.161,0.036,0.234,0.08c0.093,0.054,0.189,0.101,0.277,0.162c0.107,0.072,0.223,0.131,0.333,0.198
		c0.014,0.007,0.023,0.013,0.038,0.02c0.041,0.014,0.08,0.014,0.115-0.016c0.075-0.063,0.163-0.078,0.257-0.074
		c0.07,0.002,0.138,0.009,0.206,0.013c0.122,0.008,0.243,0.005,0.365-0.011c0.015-0.002,0.029-0.004,0.045-0.006
		c0.104-0.017,0.199,0,0.294,0.043c0.093,0.042,0.188,0.069,0.292,0.06c0.056-0.005,0.104-0.03,0.157-0.045
		c0.076-0.019,0.149-0.038,0.23-0.039c0.025,0,0.043-0.011,0.063-0.024c0.063-0.042,0.129-0.075,0.204-0.088
		c0.019-0.001,0.029-0.014,0.044-0.025c0.096-0.089,0.193-0.176,0.29-0.265c0.048-0.046,0.081-0.105,0.119-0.161
		c0.027-0.041,0.056-0.081,0.089-0.115c0.022-0.021,0.026-0.022,0.045,0c0.091,0.117,0.217,0.18,0.343,0.246
		c0.095,0.049,0.19,0.091,0.286,0.135c0.045,0.021,0.085,0.046,0.104,0.097c0.005,0.014,0.014,0.027,0.021,0.04
		c0.066,0.098,0.107,0.208,0.125,0.325c0.013,0.074,0.035,0.146,0.049,0.218c0.022,0.113,0.047,0.224,0.064,0.337
		c0.005,0.029,0,0.057-0.007,0.086c-0.017,0.089-0.039,0.178-0.043,0.271c0,0.011-0.003,0.024-0.006,0.036
		c-0.004,0.015-0.011,0.025-0.026,0.028c-0.052,0.008-0.101,0.028-0.153,0.029c-0.031,0.001-0.061,0-0.091-0.004
		c-0.121-0.024-0.241-0.028-0.363-0.006c-0.016,0.002-0.031,0.005-0.045,0.011c-0.07,0.039-0.138,0.079-0.179,0.156
		c-0.023,0.046-0.058,0.086-0.082,0.131c-0.021,0.039-0.021,0.071,0.007,0.105c0.047,0.057,0.093,0.113,0.141,0.167
		c0.014,0.018,0.035,0.031,0.055,0.04c0.119,0.057,0.241,0.104,0.364,0.151c0.022,0.009,0.046,0.014,0.07,0.015
		c0.035,0.002,0.07,0.005,0.105,0.007c0.151,0.011,0.271,0.084,0.375,0.188c0.049,0.047,0.1,0.071,0.165,0.072
		c0.118,0.001,0.234,0.01,0.354-0.003c0.016-0.002,0.034-0.002,0.05,0c0.089,0.013,0.166-0.018,0.233-0.069
		c0.038-0.026,0.07-0.055,0.103-0.084c0.05-0.041,0.104-0.064,0.166-0.075c0.059-0.009,0.118-0.015,0.178-0.011
		c-0.066,0.086-0.118,0.18-0.106,0.307c0,0.008-0.026,0.02-0.039,0.032c-0.172,0.166-0.349,0.327-0.513,0.501
		c-0.127,0.14-0.24,0.297-0.203,0.52c0.114,0.006,0.222,0.011,0.334,0.016c-0.004,0.067,0.013,0.137-0.016,0.178
		c-0.114,0.171-0.227,0.346-0.366,0.495c-0.146,0.156-0.317,0.293-0.489,0.417c-0.111,0.081-0.245,0.132-0.375,0.183
		c-0.118,0.044-0.25,0.058-0.364,0.108c-0.147,0.065-0.275,0.17-0.424,0.227c-0.199,0.076-0.403,0.136-0.613,0.175
		c-0.239,0.045-0.482,0.067-0.727,0.086c-0.21,0.016-0.417-0.021-0.627-0.056c-0.035-0.005-0.071-0.003-0.105-0.007
		c-0.011-0.017-0.022-0.035-0.035-0.052c-0.057-0.076-0.136-0.106-0.229-0.084c-0.068,0.017-0.108-0.013-0.133-0.069
		c-0.038-0.075-0.071-0.151-0.106-0.226C65.618-30.353,65.485-30.618,65.364-30.886z M63.988-27.137
		c0.003,0.05,0.01,0.102,0.014,0.152c-0.033-0.106-0.066-0.213-0.099-0.319c0.005-0.016,0.013-0.033,0.02-0.049
		c0.009,0.002,0.017,0.004,0.023,0.006c0.01,0.01,0.021,0.02,0.031,0.03C63.98-27.257,63.982-27.196,63.988-27.137z M63.56-26.968
		c-0.023,0.082-0.041,0.174-0.079,0.243c-0.052-0.214-0.105-0.442-0.172-0.731c0.107,0.141,0.194,0.254,0.284,0.371
		C63.582-27.046,63.57-27.007,63.56-26.968z M67.367-21.135c-0.22-0.204-0.411-0.416-0.537-0.689
		c-0.074-0.161-0.205-0.266-0.374-0.316c-0.099-0.028-0.201-0.057-0.304-0.063c-0.387-0.036-0.739-0.131-0.962-0.489
		c0.002-0.181,0.009-0.362,0-0.542c-0.007-0.151-0.06-0.304-0.1-0.456c-0.023-0.095-0.063-0.186-0.093-0.281
		c-0.053-0.159-0.116-0.32-0.144-0.483c-0.011-0.081,0.066-0.17,0.074-0.257c0.017-0.213,0.214-0.301,0.312-0.459
		c0.062-0.101,0.236-0.127,0.334-0.216c0.27-0.241,0.574-0.459,0.667-0.83c0.143,0.061,0.273,0.13,0.415,0.175
		c0.19,0.061,0.385,0.125,0.58,0.15c0.318,0.04,0.64,0.011,0.95-0.077c0.15-0.043,0.295-0.105,0.443-0.155
		c0.107-0.035,0.217-0.064,0.349-0.103c-0.009,0.11,0,0.208-0.024,0.296c-0.035,0.123-0.104,0.236-0.141,0.359
		c-0.069,0.221-0.124,0.443-0.187,0.666c-0.006,0.016-0.017,0.031-0.021,0.048c-0.045,0.165-0.087,0.329-0.13,0.494
		c-0.003,0.008,0.009,0.018,0.011,0.027c0.017,0.072,0.037,0.146,0.052,0.218c0.069,0.336-0.084,0.651-0.091,0.981
		c-0.002,0.123-0.051,0.243-0.082,0.365c-0.005,0.021-0.022,0.042-0.023,0.064c-0.015,0.154-0.073,0.33-0.022,0.463
		c0.041,0.118,0.052,0.222,0.051,0.336c0,0.108,0.044,0.187,0.107,0.244c-0.012,0.098-0.029,0.196-0.027,0.299
		c0.005,0.214-0.002,0.433,0.008,0.647c0.007,0.114,0.018,0.234,0.061,0.337c0.212,0.501,0.266,1.001,0.058,1.52
		c-0.002,0.006-0.003,0.011-0.005,0.016c-0.073-0.225-0.159-0.446-0.229-0.672C68.152-20.145,67.845-20.692,67.367-21.135z
		 M69.528-23.877c-0.19-0.041-0.376,0.016-0.524,0.142c-0.048,0.04-0.085,0.084-0.125,0.127c0.004-0.053,0.008-0.105,0.013-0.157
		c0.008-0.077,0.052-0.152,0.076-0.228C69-24.097,69.028-24.2,69.064-24.3c0.035-0.096,0.077-0.187,0.12-0.278
		c0.041-0.085,0.09-0.168,0.137-0.251c0.036-0.07,0.075-0.141,0.124-0.233c0.05,0.185,0.106,0.324,0.124,0.47
		c0.036,0.279,0.078,0.547,0.237,0.793C69.714-23.825,69.621-23.857,69.528-23.877z M71.92-16.802
		c-0.226-0.245-0.41-0.528-0.741-0.672c0.136-0.083,0.304-0.073,0.39,0.021C71.743-17.266,71.849-17.043,71.92-16.802z
		 M72.461-22.983c-0.199-0.199-0.421-0.386-0.663-0.529c-0.431-0.253-0.87-0.194-1.275,0.038c-0.079-0.06-0.151-0.126-0.229-0.171
		c-0.004-0.044-0.015-0.085-0.017-0.129c-0.033-0.459,0.027-0.915-0.077-1.376c-0.064-0.276-0.027-0.579-0.014-0.871
		c0.006-0.139,0.06-0.278,0.104-0.413c0.025-0.078,0.081-0.145,0.124-0.217c0.093-0.159,0.207-0.308,0.272-0.476
		c0.079-0.198,0.128-0.41,0.172-0.619c0.036-0.185-0.012-0.377,0.091-0.559c0.086-0.149,0.123-0.327,0.202-0.482
		c0.059-0.113,0.162-0.2,0.222-0.311c0.078-0.14,0.135-0.291,0.193-0.44c0.045-0.117,0.087-0.235,0.132-0.353
		c0.062,0.003,0.123,0.003,0.185,0.011c0.099,0.011,0.195,0.025,0.289,0.049c0.09,0.023,0.178,0.06,0.263,0.101
		c0.114,0.054,0.23,0.104,0.346,0.153c0.093,0.04,0.188,0.071,0.279,0.106c0.021,0.008,0.041,0.013,0.063,0.017
		c0.073,0.014,0.147,0.029,0.223,0.045c0.04,0.009,0.083,0.025,0.124,0.037c0.018,0.005,0.019,0.017,0.019,0.032
		c-0.003,0.088-0.005,0.176-0.008,0.264c-0.002,0.146-0.01,0.292-0.022,0.438c-0.005,0.051-0.002,0.102,0.01,0.153
		c0.016,0.077,0.021,0.157,0.032,0.236c0.018,0.127,0.053,0.248,0.096,0.37c0.094,0.253,0.187,0.506,0.274,0.763
		c0.023,0.068,0.052,0.134,0.076,0.202c0.002,0.005,0.004,0.013,0.007,0.019c0.011,0.023,0.004,0.038-0.013,0.056
		c-0.058,0.063-0.116,0.13-0.174,0.193c-0.025,0.027-0.052,0.052-0.076,0.078c-0.017,0.017-0.038,0.026-0.061,0.03
		c-0.079,0.014-0.156,0.034-0.231,0.057c-0.038,0.012-0.072,0.029-0.107,0.045c-0.098,0.043-0.199,0.084-0.297,0.125
		c-0.032,0.014-0.065,0.024-0.098,0.04c-0.048,0.024-0.1,0.031-0.153,0.035c-0.062,0.004-0.124,0.009-0.188,0.008
		c-0.01,0-0.02,0.001-0.032,0.004c-0.163,0.027-0.328,0.045-0.493,0.081c-0.023,0.005-0.045,0.006-0.069-0.001
		c-0.031-0.01-0.065-0.015-0.1-0.025c-0.044-0.013-0.087-0.004-0.125,0.019c-0.051,0.027-0.096,0.061-0.126,0.111
		c-0.02,0.036-0.047,0.068-0.078,0.097c-0.023,0.021-0.042,0.05-0.065,0.072c-0.013,0.01-0.023,0.021-0.036,0.027
		c-0.058,0.025-0.089,0.073-0.115,0.125c-0.022,0.042-0.033,0.089-0.044,0.137c-0.004,0.017-0.002,0.034,0.001,0.052
		c0.008,0.041,0.016,0.083,0.023,0.125c0.006,0.021,0.001,0.04-0.012,0.058c-0.024,0.031-0.039,0.065-0.049,0.104
		c-0.007,0.03-0.007,0.109,0.002,0.138C71.245-25.072,71.261-25,71.294-25c0.024,0,0.048,0,0.072,0c0.027,0,0.049-0.044,0.066-0.026
		c0.015,0.018,0.032,0.004,0.047,0.019c0.014,0.015,0.029,0.004,0.045,0c0.067-0.021,0.117-0.063,0.141-0.13
		c0.012-0.038,0.025-0.08,0.037-0.118c0.005-0.016,0.013-0.028,0.026-0.038c0.02-0.014,0.038-0.031,0.058-0.043
		c0.034-0.027,0.067-0.056,0.098-0.089c0.058-0.066,0.131-0.116,0.21-0.156c0.05-0.023,0.1-0.048,0.148-0.071
		c0.019-0.009,0.04-0.016,0.06-0.016c0.021-0.001,0.046-0.004,0.07-0.009c0.109-0.021,0.219-0.028,0.329-0.035
		c0.096-0.006,0.191-0.014,0.286-0.024c0.07-0.007,0.142-0.01,0.213-0.014c0.089-0.008,0.178-0.014,0.268-0.017
		c0.103-0.002,0.202,0.014,0.304,0.037c0.054,0.01,0.108,0.02,0.161,0.024c0.076,0.008,0.15,0.03,0.224,0.05
		c0.04,0.011,0.077,0.031,0.11,0.059c0.011,0.009,0.022,0.018,0.035,0.026c0.012,0.006,0.021,0.016,0.026,0.028
		c0.039,0.079,0.093,0.146,0.148,0.211c0.016,0.017,0.021,0.034,0.021,0.056c-0.001,0.05,0.007,0.102,0.018,0.151
		c0.021,0.101,0.038,0.202,0.06,0.303c0.006,0.027,0.007,0.054,0.006,0.082c-0.005,0.131-0.021,0.262-0.055,0.39
		c-0.017,0.066-0.017,0.135-0.021,0.201c-0.002,0.021-0.005,0.043-0.011,0.062c-0.022,0.074-0.032,0.152-0.047,0.228
		c-0.012,0.062-0.021,0.12-0.033,0.185c-0.004,0.025-0.02,0.05-0.032,0.074c-0.044,0.075-0.094,0.151-0.145,0.223
		c-0.042,0.063-0.076,0.13-0.096,0.202c-0.036,0.13-0.072,0.262-0.092,0.395c-0.009,0.054-0.022,0.106-0.034,0.16
		c-0.011,0.049-0.01,0.097,0,0.145c0.016,0.088,0.032,0.174,0.049,0.259c0.01,0.047,0.011,0.092,0.001,0.139
		c-0.01,0.051-0.013,0.102-0.018,0.151c-0.102-0.063-0.201-0.132-0.315-0.172C73.226-22.283,72.831-22.607,72.461-22.983z"/>
	<path fill-rule="evenodd" clip-rule="evenodd" d="M47.197-39.652c-0.01,0.107,0.062,0.29,0.145,0.325
		c0.424,0.175,0.865,0.219,1.305,0.026c0.109-0.047,0.216-0.095,0.329-0.123c0.276-0.068,0.674,0.269,0.621,0.544
		c-0.069,0.332-0.183,0.656-0.278,0.981c-0.051,0.169-0.183,0.257-0.328,0.341c-0.1,0.057-0.188,0.141-0.281,0.213
		c0.008,0.013,0.017,0.025,0.021,0.039c0.104,0.002,0.207,0.005,0.333,0.01c-0.097,0.137-0.207,0.27-0.086,0.448
		c0.132-0.137,0.278-0.231,0.481-0.095c0.02-0.084,0.034-0.149,0.052-0.218c0.052,0.02,0.095,0.036,0.167,0.063
		c-0.002-0.086,0.004-0.15-0.005-0.213c-0.026-0.168,0.103-0.239,0.194-0.337c0.199-0.213,0.392-0.431,0.601-0.664
		c0.169,0.091,0.31,0.169,0.461,0.253c-0.058,0.062-0.099,0.105-0.149,0.162c0.055,0.05,0.099,0.112,0.156,0.136
		c0.077,0.034,0.471-0.164,0.49-0.244c0.012-0.048-0.004-0.124-0.036-0.161c-0.07-0.079-0.165-0.133-0.241-0.209
		c-0.248-0.245-0.402-0.396-0.208-0.757c0.142,0.024,0.28,0.048,0.419,0.071c0.088,0.431,0.462,0.523,0.773,0.689
		c-0.012,0.041-0.021,0.084-0.032,0.133c0.048-0.005,0.083-0.01,0.143-0.016c-0.118,0.088-0.212,0.159-0.292,0.222
		c0.084,0.05,0.146,0.085,0.174,0.102c0.076-0.044,0.139-0.082,0.219-0.129c-0.001,0.104-0.002,0.166-0.002,0.228
		c0.16-0.129,0.285-0.197,0.49-0.164c0.33,0.054,0.366-0.019,0.459-0.294c0.078-0.223-0.003-0.346-0.148-0.479
		c-0.125-0.115-0.111-0.273,0.004-0.339c0.152-0.085,0.314-0.165,0.443-0.278c0.234-0.206,0.342-0.628,0.146-0.905
		c-0.169-0.245-0.34-0.492-0.534-0.717c-0.218-0.25-0.438-0.507-0.786-0.583c-0.193-0.042-0.389-0.081-0.585-0.102
		c-0.616-0.066-1.228-0.056-1.825,0.157c-0.367,0.133-0.747,0.241-1.095,0.353c-0.177-0.159-0.19-0.445-0.487-0.354
		c0.021-0.029,0.029-0.042,0.037-0.057c-0.154,0.085-0.308,0.173-0.422,0.299c-0.164,0.181-0.33,0.302-0.591,0.224
		c-0.103-0.034-0.161,0.049-0.183,0.125c-0.016,0.052,0.02,0.129,0.055,0.178c0.07,0.095,0.079,0.177,0.045,0.296
		C47.291-40.205,47.227-39.929,47.197-39.652z"/>
</g>
<g>
	<path d="M-5.194-5h-16.441C-23.617-5-25-6.469-25-8.573v-23.981l-1.399-1.393l2.116-2.126L-22-33.801v25.228
		C-22-8-21.823-8-21.636-8h16.441c0.072,0,0.116-0.008,0.137-0.012C-5.066-8.033-5-8.199-5-8.573v-25.025l2.369-2.497l2.176,2.064
		L-2-32.402v23.829C-2-6.402-3.254-5-5.194-5z"/>
	<rect x="-21" y="-30" width="15" height="21"/>
	<circle cx="-18.226" cy="-32.727" r="1.466"/>
	<circle cx="-7.912" cy="-33.245" r="1.747"/>
	<circle cx="-13.419" cy="-34.897" r="2.195"/>
	<circle cx="-18.139" cy="-38.315" r="2.318"/>
	<circle cx="-10.389" cy="-39.481" r="1.083"/>
	<circle cx="-9.072" cy="-36.974" r="0.679"/>
	<circle cx="-15.19" cy="-41.753" r="0.679"/>
</g>
</svg>
