<?xml version="1.0" encoding="utf-8"?>
<!-- Generator: Adobe Illustrator 16.0.0, SVG Export Plug-In . SVG Version: 6.00 Build 0)  -->
<!DOCTYPE svg PUBLIC "-//W3C//DTD SVG 1.1//EN" "http://www.w3.org/Graphics/SVG/1.1/DTD/svg11.dtd">
<svg version="1.1" xmlns="http://www.w3.org/2000/svg" xmlns:xlink="http://www.w3.org/1999/xlink" x="0px" y="0px" width="957.5px"
	 height="540px" viewBox="0 0 957.5 540" enable-background="new 0 0 957.5 540" xml:space="preserve">
<g id="Calque_2">
</g>
<g id="Calque_1">
	<g>
		<path fill="#5A5252" d="M228.267,129.194h-15.08l-2.25,12.267h-23.183l19.019-80.349h28.246l18.905,80.349h-23.182
			L228.267,129.194z M220.951,78.667h-0.225l-5.177,32.973h10.241L220.951,78.667z"/>
		<path fill="#5A5252" d="M273.394,121.88c0.226,2.589,0.338,4.502,1.126,5.965c0.787,1.463,2.138,2.363,4.613,2.363
			c3.826,0,4.502-3.602,4.502-4.727c0-2.926-0.676-3.826-8.553-6.64c-14.067-4.951-20.369-8.215-20.369-19.355
			c0-12.267,6.978-20.481,23.857-20.481c24.308,0,24.308,13.279,24.308,18.905h-18.456c0-1.575-0.225-3.376-0.9-4.389
			c-0.787-1.125-2.025-1.688-4.389-1.688c-2.251,0-4.613,0.787-4.613,4.163c0,2.926,2.926,4.052,16.092,8.665
			c6.077,2.139,13.504,5.064,13.504,18.006c0,15.079-11.479,20.368-24.982,20.368c-15.867,0-24.532-4.163-24.87-21.156H273.394z"/>
		<path fill="#5A5252" d="M325.499,121.88c0.226,2.589,0.338,4.502,1.126,5.965c0.787,1.463,2.138,2.363,4.613,2.363
			c3.826,0,4.502-3.602,4.502-4.727c0-2.926-0.676-3.826-8.553-6.64c-14.067-4.951-20.369-8.215-20.369-19.355
			c0-12.267,6.978-20.481,23.857-20.481c24.308,0,24.308,13.279,24.308,18.905h-18.456c0-1.575-0.225-3.376-0.9-4.389
			c-0.787-1.125-2.025-1.688-4.389-1.688c-2.251,0-4.613,0.787-4.613,4.163c0,2.926,2.926,4.052,16.092,8.665
			c6.077,2.139,13.504,5.064,13.504,18.006c0,15.079-11.479,20.368-24.982,20.368c-15.867,0-24.532-4.163-24.87-21.156H325.499z"/>
		<path fill="#5A5252" d="M412.152,110.964c0,17.218-2.588,32.072-26.67,32.072c-24.083,0-26.671-14.854-26.671-32.072
			c0-17.104,2.588-31.959,26.671-31.959C409.564,79.005,412.152,93.859,412.152,110.964z M385.482,128.857
			c3.938,0,4.839-3.714,4.839-17.894c0-14.179-0.9-17.893-4.839-17.893c-3.939,0-4.839,3.714-4.839,17.893
			C380.644,125.144,381.543,128.857,385.482,128.857z"/>
		<path fill="#5A5252" d="M446.703,101.85c0-6.077-1.125-8.666-4.839-8.666c-4.052,0-4.951,2.589-4.951,17.78
			c0,14.968,0.337,17.894,4.839,17.894c4.275,0,5.289-2.926,5.289-13.504h19.806c0,9.79-1.463,16.654-5.401,21.043
			c-3.939,4.502-10.241,6.64-19.693,6.64c-24.083,0-26.671-14.854-26.671-32.072c0-17.104,2.588-31.959,26.671-31.959
			c19.918,0,25.095,7.427,25.095,25.657h-20.144V101.85z"/>
		<path fill="#5A5252" d="M471.35,60.212h21.831v15.529H471.35V60.212z M471.35,80.58h21.831v60.881H471.35V80.58z"/>
		<path fill="#5A5252" d="M548.772,132.458c0,3.151,0.676,6.189,2.026,9.003h-20.481c-0.788-2.138-1.013-4.389-1.013-6.414
			l-0.226-0.113c-2.588,5.965-8.103,8.103-14.292,8.103c-11.591,0-16.542-6.189-16.542-18.005c0-13.504,6.302-17.218,14.517-19.131
			l10.128-2.363c4.502-1.013,6.077-2.363,6.077-6.302c0-3.038-1.801-4.727-4.164-4.727c-4.613,0-5.289,3.488-5.289,6.978h-19.131
			c0-13.729,7.203-20.481,24.533-20.481c19.918,0,23.856,8.103,23.856,17.555V132.458z M528.967,111.978
			c-1.351,0.899-3.038,1.463-5.401,2.363c-3.602,1.35-4.164,4.163-4.164,7.765c0,3.601,1.351,6.076,4.389,6.076
			c4.276,0,5.177-3.938,5.177-7.427V111.978z"/>
		<path fill="#5A5252" d="M559.354,62.688h21.832V80.58h7.652v14.18h-7.652v27.12c0,3.938,0.563,5.627,4.163,5.627
			c1.688,0,2.701-0.112,3.489-0.338v14.517c-1.801,0.226-7.54,0.676-10.804,0.676c-12.491,0-18.681-0.45-18.681-14.18V94.76h-6.64
			V80.58h6.64V62.688z"/>
		<path fill="#5A5252" d="M592.102,60.212h21.831v15.529h-21.831V60.212z M592.102,80.58h21.831v60.881h-21.831V80.58z"/>
		<path fill="#5A5252" d="M672.338,110.964c0,17.218-2.588,32.072-26.67,32.072c-24.083,0-26.671-14.854-26.671-32.072
			c0-17.104,2.588-31.959,26.671-31.959C669.75,79.005,672.338,93.859,672.338,110.964z M645.668,128.857
			c3.938,0,4.839-3.714,4.839-17.894c0-14.179-0.9-17.893-4.839-17.893c-3.939,0-4.839,3.714-4.839,17.893
			C640.829,125.144,641.729,128.857,645.668,128.857z"/>
		<path fill="#5A5252" d="M707.339,101.174c0-4.614-1.463-5.964-4.276-5.964c-2.926,0-4.389,2.476-4.389,5.964v40.287h-21.832V80.58
			h21.156v6.978h0.226c3.264-5.965,8.777-8.553,16.092-8.553c7.766,0,14.854,4.276,14.854,15.417v47.039h-21.831V101.174z"/>
	</g>
	<g>
		<g>
			<path fill="#5A5252" d="M179.728,240.231c1.818-3.811,2.72-9.164,2.72-16.07c0-25.954-19.063-38.938-57.173-38.938
				c-4.903,0-12.116,0.732-21.651,2.185c-9.523,1.453-16.662,2.175-21.374,2.175c3.263,78.24,4.905,130.884,4.905,157.931
				l19.61,3.809l10.603,0.27c20.152,0.178,37.942-3.354,53.37-10.613c19.796-9.258,29.692-22.873,29.692-40.843
				c0-10.708-2.092-21.146-6.265-31.321C191.801,262.648,186.99,253.121,179.728,240.231z M110.296,214.363
				c4.905-1.262,9.897-1.904,14.978-1.904c13.798,0,23.773,1.996,29.961,5.988c-0.746,7.987-5.996,14.525-15.803,19.604
				c-7.265,3.634-15.803,5.992-25.593,7.077C112.556,231.339,111.386,221.079,110.296,214.363z M149.51,319.467
				c-10.357,2.717-22.065,4.267-35.13,4.625V272.36c17.712-1.453,32.703-5.72,44.988-12.798
				c9.216,15.614,13.825,29.136,13.825,40.573C173.192,308.845,165.298,315.294,149.51,319.467z"/>
			<path fill="#5A5252" d="M269.729,184.138c-12.21,0.73-21.691,0.916-28.432,0.553h-26.955c0,10.132,0.276,25.508,0.822,46.133
				c0.537,20.626,0.807,36.096,0.807,46.409c0,26.233-1.449,49.22-4.351,68.929c4.532,1.095,9.076,2.174,13.608,3.266
				c5.812,1.445,10.358,2.165,13.618,2.165c4.172,0,10.575-0.404,19.201-1.223c8.624-0.816,15.194-1.23,19.737-1.23h29.677v-27.218
				h-29.405c-14.889-0.185-27.058,0.361-36.493,1.624c0-1.624-0.089-16.239-0.267-43.833l41.665-0.821l0.807-27.22l-42.472,0.813
				l-1.093-35.943c7.985,0,19.152-0.272,33.487-0.821c15.803-0.715,27.047-1.081,33.771-1.081l1.632-31.59h-10.923
				C292.704,183.048,283.217,183.414,269.729,184.138z"/>
			<path fill="#5A5252" d="M375.3,184.138c-17.972,0-31.627,5.177-40.97,15.521c-9.36,10.346-14.031,24.601-14.031,42.75
				c0,12.16,0.63,30.318,1.902,54.452c1.276,24.152,1.911,42.122,1.911,53.919h27.224c0-8.712-0.643-27.136-1.897-55.277
				c19.712-0.181,34.525-0.267,44.369-0.267c0,3.827,0,9.028,0,15.594c0,7.847,0,13.048,0,15.596c0,2.917,0,10.491,0,22.708
				l26.686,1.646c1.092-36.366,1.644-56.816,1.644-61.367C422.137,219.224,406.528,184.138,375.3,184.138z M379.651,268.554
				c-23.952,0-34.483-0.094-31.575-0.275c-0.372-11.436-0.552-20.056-0.552-25.87c0-10.705,1.808-18.418,5.44-23.139
				c4.363-5.265,11.809-7.906,22.335-7.906c11.616,0,17.787,18.883,18.508,56.639C387.633,268.371,382.922,268.554,379.651,268.554z
				"/>
			<path fill="#5A5252" d="M510.662,186.593c1.273,5.264,1.911,11.614,1.911,19.055c0,7.81-0.96,19.929-2.858,36.349
				c-1.913,16.438-2.864,28.011-2.864,34.724c0,1.815,0.219,5.851,0.681,12.119c0.451,6.259,0.682,11.205,0.682,14.833
				c0,17.973-5.814,26.955-17.431,26.955c-19.974,0-29.946-17.329-29.946-52c0-3.998,0.128-9.438,0.408-16.343
				c0.271-6.896,0.412-11.617,0.412-14.157c0-7.257,0.077-17.973,0.271-32.126c0.359-14.888,0.551-25.505,0.551-31.863h-27.235
				c0,9.075-0.273,22.784-0.815,41.118c-0.549,18.335-0.829,32.131-0.829,41.385c0,28.318,2.632,48.735,7.906,61.266
				c8.521,19.969,24.952,29.954,49.277,29.954c16.516,0,28.24-5.364,35.13-16.063c5.44-8.531,8.161-21.604,8.161-39.218
				c0-11.062,0.962-27.59,2.866-49.553c1.896-21.96,2.861-38.481,2.861-49.558c0-9.074-0.914-17.057-2.723-23.961L510.662,186.593z"
				/>
			<path fill="#5A5252" d="M607.623,290.06c-1.993-7.992-7.61-25.503-16.878-52.555c-7.256-21.591-11.797-39.388-13.609-53.367
				l-26.967,3.271c1.644,9.8,8.629,36.942,20.975,81.406c12.53,45.028,20.417,70.98,23.68,77.883
				c3.638,7.624,7.909,11.433,12.8,11.433c9.09,0,19.246-25.412,30.5-76.24c7.623-33.578,13.346-64.978,17.154-94.215l-26.952-3.537
				C624.873,209.914,617.981,245.227,607.623,290.06z"/>
			<path fill="#5A5252" d="M721.754,184.138c-17.977,0-31.635,5.177-40.981,15.521c-9.356,10.346-14.021,24.601-14.021,42.75
				c0,12.16,0.633,30.318,1.904,54.452c1.27,24.152,1.911,42.122,1.911,53.919h27.225c0-8.712-0.642-27.136-1.914-55.277
				c19.73-0.181,34.529-0.267,44.388-0.267c0,3.827,0,9.028,0,15.594c0,7.847,0,13.048,0,15.596c0,2.917,0,10.491,0,22.708
				l26.683,1.646c1.091-36.366,1.632-56.816,1.632-61.367C768.58,219.224,752.971,184.138,721.754,184.138z M726.108,268.554
				c-23.962,0-34.486-0.094-31.592-0.275c-0.356-11.436-0.536-20.056-0.536-25.87c0-10.705,1.809-18.418,5.442-23.139
				c4.354-5.265,11.8-7.906,22.331-7.906c11.604,0,17.779,18.883,18.512,56.639C734.088,268.371,729.368,268.554,726.108,268.554z"
				/>
			<path fill="#5A5252" d="M854.936,326.814c-7.994,0.365-14.065,0.546-18.251,0.546c-11.797,0-21.782-1.447-29.945-4.348
				c0-12.681,0.185-34.604,0.552-65.763c0.347-28.799,0.54-50.628,0.54-65.485h-27.24c0,14.885-0.181,37.298-0.536,67.252
				c-0.368,29.953-0.537,52.373-0.537,67.258c0,18.884,21.046,28.316,63.161,28.316c3.454,0,8.537-0.184,15.251-0.545
				c6.712-0.368,11.612-0.547,14.709-0.547v-27.225C868.825,326.274,862.924,326.456,854.936,326.814z"/>
		</g>
		<g>
			<path fill="#5A5252" d="M188.047,487.832l-3.959-0.466c-6.714-8.722-11.941-17.902-15.683-27.56
				c-1.985-6.332-8.368-23.511-19.148-51.532v80.023h-8.184v-39.858c0-21.178-0.549-39.282-1.637-54.336l9.656-0.775
				c8.727,17.54,19.258,41.935,31.59,73.173l0.982-18.371c-0.219-3.009-1.036-8.768-2.456-17.283
				c-1.202-7.163-1.802-12.923-1.802-17.283c0-7.884,0.547-13.857,1.64-17.902l7.365-1.558c-0.548,4.152-0.82,10.642-0.82,19.46
				c0,6.75,0.492,16.925,1.475,30.515c0.98,13.604,1.473,23.772,1.473,30.521C188.539,479.27,188.376,483.68,188.047,487.832z"/>
			<path fill="#5A5252" d="M314.899,487.832l-8.019-0.466c0-4.36,0-7.733,0-10.119c0-0.313,0-3.742,0-10.279
				c0-4.671,0-9.188,0-13.542c-4.782,0.313-13.144,0.466-25.091,0.466c-3.26,0-6.572,0.05-9.938,0.153
				c0.436,8.096,0.873,19.516,1.31,34.253h-8.183c0-6.434-0.385-16.97-1.146-31.604c-0.656-13.597-0.986-24.134-0.986-31.61
				c0-21.38,9.658-32.072,28.975-32.072c10.802,0,17.948,7.939,21.442,23.821c1.745,7.994,2.621,20.502,2.621,37.525
				C315.885,459.338,315.555,470.5,314.899,487.832z M305.253,419.639c-2.285-12.144-6.793-18.222-13.527-18.222
				c-13.793,0-20.691,7.89-20.691,23.667c0,3.638,0.165,10.488,0.491,20.559c0.868,0,8.472,0,22.811,0
				c2.061,0,6.243-0.261,12.545-0.779C306.881,439.153,306.335,430.746,305.253,419.639z"/>
			<path fill="#5A5252" d="M415.074,401.577v16.347c-0.111,7.063,0.218,17.025,0.983,29.896c0.979,13.702,1.47,23.662,1.47,29.894
				c0,3.839-0.164,7.476-0.49,10.897l-9.166-0.313c0.436-4.164,0.656-8.855,0.656-14.063c0-5.934-0.273-15.234-0.819-27.887
				c-0.55-12.659-0.818-22.475-0.818-29.458c0-5.415,0-10.678,0-15.783c-5.462-0.311-11.079-0.359-16.861-0.156l-0.489-8.262
				c2.509-0.196,4.419-0.3,5.729-0.3h39.449v8.562C430.973,401.062,424.427,401.264,415.074,401.577z"/>
			<path fill="#5A5252" d="M560.258,462.297c0,10.175-1.42,17.544-4.257,22.106c-3.379,5.3-9.275,7.945-17.679,7.945
				c-12.766,0-21.389-5.296-25.859-15.882c-2.946-7.264-4.419-19.407-4.419-36.433c0-5.608,0.107-13.392,0.328-23.354
				c0.321-11,0.546-18.841,0.65-23.512h8.188c-0.111,3.217-0.221,9.136-0.328,17.749c-0.11,7.477-0.163,13.389-0.163,17.749
				c0,1.46-0.055,3.735-0.165,6.852c-0.111,3.734-0.221,6.384-0.325,7.941c-0.11,7.06,0.159,12.874,0.815,17.437
				c2.184,15.363,9.273,23.049,21.278,23.049c8.73,0,13.533-5.71,14.403-17.131c0.222-2.802,0.111-6.54-0.324-11.214
				c-0.325-5.391-0.49-8.503-0.49-9.338c0-4.151,0.814-12.922,2.452-26.313c1.417-10.898,1.69-19.669,0.819-26.311l7.856-2.34
				c0.436,2.907,0.656,6.179,0.656,9.81c0,6.75-0.573,16.948-1.717,30.595C560.831,445.354,560.258,455.554,560.258,462.297z"/>
			<path fill="#5A5252" d="M684.002,491.413c-1.746-3.525-3.821-11.106-6.223-22.735c-3.271-15.878-7.69-23.814-13.259-23.814
				c-2.071,0-4.853,0.308-8.342,0.933c-1.423,0.411-4.971,0.884-10.644,1.398c-0.107,3.015-0.325,7.942-0.653,14.793
				c-0.222,5.085-0.325,9.031-0.325,11.831c0,4.673,0.271,8.776,0.815,12.303l-8.022,2.177c-0.438-1.972-0.655-3.734-0.655-5.292
				c0-11.936,0.874-40.534,2.622-85.79c9.055-2.18,17.188-3.269,24.388-3.269c6.55,0,11.81,1.815,15.799,5.445
				c3.98,3.638,5.974,8.621,5.974,14.953c0,10.898-4.582,20.138-13.75,27.713c6.654,6.123,10.91,14.17,12.77,24.133
				c1.084,6.437,1.686,9.754,1.796,9.963c0.874,3.947,2.018,7.114,3.441,9.5L684.002,491.413z M663.704,402.355
				c-1.858,0-7.366,0.466-16.528,1.401l-1.313,34.876c10.039-0.313,17.564-2.073,22.588-5.293c5.894-3.84,8.838-10.175,8.838-18.994
				C677.289,406.351,672.76,402.355,663.704,402.355z"/>
			<path fill="#5A5252" d="M811.017,403.601c-1.518,0-7.715,0.212-18.586,0.625c-8.15,0.411-15.431,0.52-21.84,0.311l0.816,31.14
				l25.044-0.469v8.412l-25.044,0.459c0,19.934-0.11,32.03-0.325,36.283c8.835-1.039,17.62-1.558,26.354-1.558h13.581v8.409H797.27
				c-2.618,0-6.521,0.258-11.701,0.775c-5.186,0.518-9.09,0.776-11.709,0.776c-1.741,0-5.673-0.828-11.78-2.49
				c1.416-11.417,2.127-24.648,2.127-39.703c0-6.325-0.165-15.256-0.49-26.779c-0.331-12.456-0.49-21.38-0.49-26.78h12.271
				c15.606-0.414,26.955-0.622,34.052-0.622h2.287L811.017,403.601z"/>
		</g>
	</g>
</g>
</svg>
