<svg version="1.1" id="sup_fr" xmlns="http://www.w3.org/2000/svg" x="0" y="0" width="1200" height="1003" viewBox="0 0 1200 1003" xml:space="preserve"><path fill="#E6E6E6" stroke="#fff" stroke-miterlimit="10" d="M23.4 281.8L-92 348.4l-115.4-66.6V148.5L-92 81.8l115.4 66.7z"/><path fill="#999" stroke="#fff" stroke-miterlimit="10" d="M254.2 281.8l-115.4 66.6-115.4-66.6V148.5l115.4-66.7 115.4 66.7z"/><path fill="#B3B3B3" stroke="#fff" stroke-miterlimit="10" d="M715.9 281.8l-115.4 66.6-115.4-66.6V148.5l115.4-66.7 115.4 66.7z"/><path fill="#F2F2F2" stroke="#fff" stroke-miterlimit="10" d="M1177.6 281.8l-115.4 66.6-115.4-66.6V148.5l115.4-66.7 115.4 66.7z"/><path fill="#ccc" stroke="#fff" stroke-miterlimit="10" d="M1408.4 281.8L1293 348.4l-115.4-66.6V148.5L1293 81.8l115.4 66.7z"/><path fill="#B3B3B3" stroke="#fff" stroke-miterlimit="10" d="M138.8 481.5L23.4 548.1-92 481.5V348.2l115.4-66.6 115.4 66.6z"/><path fill="#ccc" stroke="#fff" stroke-miterlimit="10" d="M369.7 481.5l-115.5 66.6-115.4-66.6V348.2l115.4-66.6 115.5 66.6z"/><path fill="#B3B3B3" stroke="#fff" stroke-miterlimit="10" d="M1062.2 481.5l-115.4 66.6-115.5-66.6V348.2l115.5-66.6 115.4 66.6z"/><path fill="#999" stroke="#fff" stroke-miterlimit="10" d="M1293 481.5l-115.4 66.6-115.4-66.6V348.2l115.4-66.6 115.4 66.6z"/><path fill="#B3B3B3" stroke="#fff" stroke-miterlimit="10" d="M23.4 681.2L-92 747.8l-115.4-66.6V547.9L-92 481.3l115.4 66.6z"/><path fill="#ccc" stroke="#fff" stroke-miterlimit="10" d="M254.2 681.2l-115.4 66.6-115.4-66.6V547.9l115.4-66.6 115.4 66.6z"/><path fill="#E6E6E6" stroke="#fff" stroke-miterlimit="10" d="M715.9 681.2l-115.4 66.6-115.4-66.6V547.9l115.4-66.6 115.4 66.6z"/><path fill="#ccc" stroke="#fff" stroke-miterlimit="10" d="M1177.6 681.2l-115.4 66.6-115.4-66.6V547.9l115.4-66.6 115.4 66.6zM1408.4 681.2L1293 747.8l-115.4-66.6V547.9l115.4-66.6 115.4 66.6z"/><path fill="#999" stroke="#fff" stroke-miterlimit="10" d="M138.8 880.9L23.4 947.5-92 880.9V747.6L23.4 681l115.4 66.6z"/><path fill="#E6E6E6" stroke="#fff" stroke-miterlimit="10" d="M369.7 880.9l-115.5 66.6-115.4-66.6V747.6L254.2 681l115.5 66.6z"/><path fill="#F2F2F2" stroke="#fff" stroke-miterlimit="10" d="M1062.2 880.9l-115.4 66.6-115.5-66.6V747.6L946.8 681l115.4 66.6z"/><path fill="#B3B3B3" stroke="#fff" stroke-miterlimit="10" d="M1293 880.9l-115.4 66.6-115.4-66.6V747.6l115.4-66.6 115.4 66.6z"/><path opacity=".7" fill="#fff" stroke="#fff" stroke-miterlimit="10" d="M-952.5 57.5h3093v912h-3093z"/><path fill="#E9524B" stroke="#fff" stroke-miterlimit="10" d="M485.1 281.8l-115.4 66.6-115.5-66.6V148.5l115.5-66.7 115.4 66.7z"/><path fill="#AB67A6" stroke="#fff" stroke-miterlimit="10" d="M946.8 281.8l-115.5 66.6-115.4-66.6V148.5l115.4-66.7 115.5 66.7z"/><path fill="#EF7F00" stroke="#fff" stroke-miterlimit="10" d="M600.5 481.5l-115.4 66.6-115.4-66.6V348.2l115.4-66.6 115.4 66.6z"/><path fill="#69B2E3" stroke="#fff" stroke-miterlimit="10" d="M831.3 481.5l-115.4 66.6-115.4-66.6V348.2l115.4-66.6 115.4 66.6z"/><path fill="#9AC21C" stroke="#fff" stroke-miterlimit="10" d="M485.1 681.2l-115.4 66.6-115.5-66.6V547.9l115.5-66.6 115.4 66.6z"/><path fill="#EC6EA5" stroke="#fff" stroke-miterlimit="10" d="M946.8 681.2l-115.5 66.6-115.4-66.6V547.9l115.4-66.6 115.5 66.6z"/><path fill="#F8D300" stroke="#fff" stroke-miterlimit="10" d="M600.5 880.9l-115.4 66.6-115.4-66.6V747.6L485.1 681l115.4 66.6z"/><path fill="#24388C" stroke="#fff" stroke-miterlimit="10" d="M831.3 880.9l-115.4 66.6-115.4-66.6V747.6L715.9 681l115.4 66.6z"/><g fill="#fff"><path d="M319.8 186.2l4.9 19.5h-4.3l-.9-4.2h-4.8l-.9 4.2h-4.3l4.9-19.5h5.4zm-4.4 11.8h3.2l-1.6-7.2-1.6 7.2zM340.7 205.7h-4.3l-6.3-12.1.1 3.9v8.2h-3.8v-19.5h4.3l6.3 12.1-.1-3.9v-8.2h3.8v19.5zM352.9 186.2l4.9 19.5h-4.3l-.9-4.2h-4.8l-.9 4.2h-4.3l4.9-19.5h5.4zm-4.4 11.8h3.2l-1.6-7.2-1.6 7.2zM365.8 205.7h-4v-16h-4.5v-3.5h13.1v3.5h-4.5v16zM371.3 196.5v-1c0-6.7 2.4-9.6 7.4-9.6 5.1 0 7.4 2.8 7.4 9.6v1c0 6.7-2.4 9.6-7.4 9.6s-7.4-2.9-7.4-9.6zm7.6 6.1c2.5 0 3.2-2.2 3.2-6.1v-1c0-3.9-.7-6.1-3.2-6.1h-.2c-2.5 0-3.2 2.2-3.2 6.1v1c0 3.9.7 6.1 3.2 6.1h.2zM400.1 205.7H396l-3.5-12.5.1 3.9v8.6h-4v-19.5h6l3.5 12.5 3.5-12.5h6v19.5h-4v-8.6l.1-3.9-3.6 12.5zM414.5 205.7h-4v-19.5h4v19.5zM429.3 186.2v3.5h-7.9v4.3h6.6v3.5h-6.6v4.7h7.9v3.5h-11.9v-19.5h11.9zM366.2 220.3h6.8v3.4h-6.8v-3.4zM298.1 255.7h-4v-19.5h6.4c3.2 0 6.8.8 6.8 6v.5c0 5.2-3.6 6-6.8 6h-2.3v7zm2.5-10.5c1.1 0 2.5-.4 2.5-2.6v-.3c0-2.2-1.4-2.6-2.5-2.6h-2.5v5.5h2.5zM323 236.2v19.5h-4v-8.2h-5.7v8.2h-4v-19.5h4v7.8h5.7v-7.8h4zM334.3 255.7h-4v-6l-5.6-13.5h4.4l3.2 8.5 3.2-8.5h4.4l-5.6 13.5v6zM340.4 242v-.3c0-3.5 2.4-5.8 6.9-5.8 4.8 0 6.9 2.1 6.9 6.7v.5h-4c0-2.5-.8-3.7-2.8-3.7h-.2c-1.6 0-2.6.9-2.6 2.1v.1c0 1.4.6 2.2 3.4 2.5 4.2.6 6.4 2 6.4 5.6v.3c0 3.7-2.5 5.9-7 5.9-4.6 0-7-2-7-6.7v-.2h4c0 2.4 1 3.5 2.9 3.5h.2c1.9 0 2.8-1 2.8-2.3v-.1c0-1.4-.7-2.2-3.5-2.5-4.4-.6-6.4-2.1-6.4-5.6zM360.7 255.7h-4v-19.5h4v19.5zM363.2 246.5v-1c0-6.7 2.4-9.6 7.4-9.6 5.1 0 7.4 2.8 7.4 9.6v1c0 6.7-2.4 9.6-7.4 9.6s-7.4-2.9-7.4-9.6zm7.6 6.1c2.5 0 3.2-2.2 3.2-6.1v-1c0-3.9-.7-6.1-3.2-6.1h-.2c-2.5 0-3.2 2.2-3.2 6.1v1c0 3.9.7 6.1 3.2 6.1h.2zM380.5 255.7v-19.5h4v16h7.2v3.5h-11.2zM392.6 246.5v-1c0-6.7 2.4-9.6 7.4-9.6 5.1 0 7.4 2.8 7.4 9.6v1c0 6.7-2.4 9.6-7.4 9.6s-7.4-2.9-7.4-9.6zm7.6 6.1c2.5 0 3.2-2.2 3.2-6.1v-1c0-3.9-.7-6.1-3.2-6.1h-.2c-2.5 0-3.2 2.2-3.2 6.1v1c0 3.9.7 6.1 3.2 6.1h.2zM409.5 246.5v-1c0-6.7 2.4-9.6 7.5-9.6 4.6 0 7.1 1.9 7.1 6.8v.9h-4c0-2.7-.6-4.2-2.8-4.2h-.2c-2.7 0-3.3 2.2-3.3 6.1v1c0 3.9.6 6.1 3.5 6.1h.2c1.1 0 2-.3 2.6-.7v-3.1h-2.6v-3.5h6.6v8.6c-1.4 1.2-3.4 2.3-6.8 2.3-5.4-.1-7.8-3-7.8-9.7zM430.9 255.7h-4v-19.5h4v19.5zM445.7 236.2v3.5h-7.9v4.3h6.6v3.5h-6.6v4.7h7.9v3.5h-11.9v-19.5h11.9z"/></g><g fill="#fff"><path d="M433.1 357.7l4.9 19.5h-4.3l-.9-4.2H428l-.9 4.2h-4.3l4.9-19.5h5.4zm-4.4 11.8h3.2l-1.6-7.2-1.6 7.2zM454 377.2h-4.3l-6.3-12.1.1 3.9v8.2h-3.8v-19.5h4.3l6.3 12.1-.1-3.9v-8.2h3.8v19.5zM466.2 357.7l4.9 19.5h-4.3l-.9-4.2H461l-.9 4.2h-4.3l4.9-19.5h5.5zm-4.4 11.8h3.2l-1.6-7.2-1.6 7.2zM479.1 377.2h-4v-16h-4.5v-3.5h13.1v3.5h-4.5v16zM484.6 368v-1c0-6.7 2.4-9.6 7.4-9.6 5.1 0 7.4 2.8 7.4 9.6v1c0 6.7-2.4 9.6-7.4 9.6-5-.1-7.4-2.9-7.4-9.6zm7.6 6c2.5 0 3.2-2.2 3.2-6.1v-1c0-3.9-.7-6.1-3.2-6.1h-.2c-2.5 0-3.2 2.2-3.2 6.1v1c0 3.9.7 6.1 3.2 6.1h.2zM513.4 377.2h-4.1l-3.5-12.5.1 3.9v8.6h-4v-19.5h6l3.5 12.5 3.5-12.5h6v19.5h-4v-8.6l.1-3.9-3.6 12.5zM523.2 368v-1c0-6.7 2.4-9.6 7.4-9.6 5.1 0 7.4 2.8 7.4 9.6v1c0 6.7-2.4 9.6-7.4 9.6-5.1-.1-7.4-2.9-7.4-9.6zm7.5 6c2.5 0 3.2-2.2 3.2-6.1v-1c0-3.9-.7-6.1-3.2-6.1h-.2c-2.5 0-3.2 2.2-3.2 6.1v1c0 3.9.7 6.1 3.2 6.1h.2zM540 366.7h6.8v3.4H540v-3.4zM418.4 402.2h-4v-19.5h6.4c3.2 0 6.8.8 6.8 6v.5c0 5.2-3.6 6-6.8 6h-2.3v7zm2.5-10.5c1.1 0 2.5-.4 2.5-2.6v-.3c0-2.2-1.4-2.6-2.5-2.6h-2.5v5.5h2.5zM438.4 382.7l4.9 19.5H439l-1-4.2h-4.8l-.9 4.2H428l4.9-19.5h5.5zm-4.4 11.8h3.2l-1.6-7.2-1.6 7.2zM451.3 402.2h-4v-16h-4.5v-3.5h13.1v3.5h-4.5v16zM471.4 382.7v19.5h-4V394h-5.7v8.2h-4v-19.5h4v7.8h5.7v-7.8h4zM473.8 393v-1c0-6.7 2.4-9.6 7.4-9.6 5.1 0 7.4 2.8 7.4 9.6v1c0 6.7-2.4 9.6-7.4 9.6-5.1-.1-7.4-2.9-7.4-9.6zm7.5 6c2.5 0 3.2-2.2 3.2-6.1v-1c0-3.9-.7-6.1-3.2-6.1h-.2c-2.5 0-3.2 2.2-3.2 6.1v1c0 3.9.7 6.1 3.2 6.1h.2zM491 402.2v-19.5h4v16h7.2v3.5H491zM503.2 393v-1c0-6.7 2.4-9.6 7.4-9.6 5.1 0 7.4 2.8 7.4 9.6v1c0 6.7-2.4 9.6-7.4 9.6-5-.1-7.4-2.9-7.4-9.6zm7.5 6c2.5 0 3.2-2.2 3.2-6.1v-1c0-3.9-.7-6.1-3.2-6.1h-.2c-2.5 0-3.2 2.2-3.2 6.1v1c0 3.9.7 6.1 3.2 6.1h.2zM520 393v-1c0-6.7 2.4-9.6 7.5-9.6 4.6 0 7.1 1.9 7.1 6.8v.9h-4c0-2.7-.6-4.2-2.8-4.2h-.2c-2.7 0-3.3 2.2-3.3 6.1v1c0 3.9.6 6.1 3.5 6.1h.2c1.1 0 2-.3 2.6-.7v-3.1H528v-3.5h6.6v8.6c-1.4 1.2-3.4 2.3-6.8 2.3-5.4-.2-7.8-3-7.8-9.7zM541.4 402.2h-4v-19.5h4v19.5zM556.3 382.7v3.5h-7.9v4.3h6.6v3.5h-6.6v4.7h7.9v3.5h-11.9v-19.5h11.9zM481.7 416.7h6.8v3.4h-6.8v-3.4zM418.4 452.2h-4v-19.5h6.4c3.2 0 6.8.8 6.8 6v.5c0 5.2-3.6 6-6.8 6h-2.3v7zm2.5-10.5c1.1 0 2.5-.4 2.5-2.6v-.3c0-2.2-1.4-2.6-2.5-2.6h-2.5v5.5h2.5zM438.4 432.7l4.9 19.5H439l-1-4.2h-4.8l-.9 4.2H428l4.9-19.5h5.5zm-4.4 11.8h3.2l-1.6-7.2-1.6 7.2zM451.3 452.2h-4v-16h-4.5v-3.5h13.1v3.5h-4.5v16zM471.4 432.7v19.5h-4V444h-5.7v8.2h-4v-19.5h4v7.8h5.7v-7.8h4zM473.8 443v-1c0-6.7 2.4-9.6 7.4-9.6 5.1 0 7.4 2.8 7.4 9.6v1c0 6.7-2.4 9.6-7.4 9.6-5.1-.1-7.4-2.9-7.4-9.6zm7.5 6c2.5 0 3.2-2.2 3.2-6.1v-1c0-3.9-.7-6.1-3.2-6.1h-.2c-2.5 0-3.2 2.2-3.2 6.1v1c0 3.9.7 6.1 3.2 6.1h.2zM491 452.2v-19.5h4v16h7.2v3.5H491zM503.2 443v-1c0-6.7 2.4-9.6 7.4-9.6 5.1 0 7.4 2.8 7.4 9.6v1c0 6.7-2.4 9.6-7.4 9.6-5-.1-7.4-2.9-7.4-9.6zm7.5 6c2.5 0 3.2-2.2 3.2-6.1v-1c0-3.9-.7-6.1-3.2-6.1h-.2c-2.5 0-3.2 2.2-3.2 6.1v1c0 3.9.7 6.1 3.2 6.1h.2zM520 443v-1c0-6.7 2.4-9.6 7.5-9.6 4.6 0 7.1 1.9 7.1 6.8v.9h-4c0-2.7-.6-4.2-2.8-4.2h-.2c-2.7 0-3.3 2.2-3.3 6.1v1c0 3.9.6 6.1 3.5 6.1h.2c1.1 0 2-.3 2.6-.7v-3.1H528v-3.5h6.6v8.6c-1.4 1.2-3.4 2.3-6.8 2.3-5.4-.2-7.8-3-7.8-9.7zM541.4 452.2h-4v-19.5h4v19.5zM556.3 432.7v3.5h-7.9v4.3h6.6v3.5h-6.6v4.7h7.9v3.5h-11.9v-19.5h11.9zM439.3 474h.2c2 0 2.7-1.4 2.7-3.5h4v.2c0 4.8-2.3 6.7-7 6.7-5.1 0-7.3-2.8-7.3-9.6v-1c0-6.7 2.2-9.6 7.3-9.6 4.6 0 7 1.9 7 6.8v.9h-4c0-2.7-.6-4.2-2.7-4.2h-.2c-2.6 0-3.2 2.2-3.2 6.1v1c-.1 4.1.6 6.2 3.2 6.2zM448.6 477.2v-19.5h4v16h7.2v3.5h-11.2zM465.8 477.2h-4v-19.5h4v19.5zM483 477.2h-4.3l-6.3-12.1.1 3.9v8.2h-3.8v-19.5h4.3l6.3 12.1-.1-3.9v-8.2h3.8v19.5zM490 477.2h-4v-19.5h4v19.5zM492.4 468v-1c0-6.7 2.4-9.6 7.4-9.6 5.1 0 7.4 2.8 7.4 9.6v1c0 4.8-1.2 7.6-3.7 8.8l1.2 2.9h-3.1l-.8-2.2h-.9c-5.1 0-7.5-2.8-7.5-9.5zm9.7 5.1c.8-1 1-2.7 1-5.1v-1c0-3.9-.7-6.1-3.2-6.1h-.2c-2.5 0-3.2 2.2-3.2 6.1v1c0 3.7.6 5.9 2.9 6.1l-1.3-3.4h3l1 2.4zM509.6 471v-13.3h4v13.2c0 2.1.6 3.1 2.9 3.1s3-1 3-3.1v-13.2h4V471c0 4.2-1.7 6.5-7 6.5s-6.9-2.2-6.9-6.5zM538.2 457.7v3.5h-7.9v4.3h6.6v3.5h-6.6v4.7h7.9v3.5h-11.9v-19.5h11.9z"/></g><g fill="#fff"><path d="M318.3 609.2v3.5h-7.9v4.3h6.6v3.5h-6.6v4.7h7.9v3.5h-11.9v-19.5h11.9zm-2.3-4.3l-1.6 2.7h-3.9l1.4-2.7h4.1zM328.3 628.7h-4v-16h-4.5v-3.5h13.1v3.5h-4.5v16zM348.4 609.2v19.5h-4v-8.2h-5.7v8.2h-4v-19.5h4v7.8h5.7v-7.8h4zM350.8 619.4v-1c0-6.7 2.4-9.6 7.4-9.6 5.1 0 7.4 2.8 7.4 9.6v1c0 6.7-2.4 9.6-7.4 9.6s-7.4-2.8-7.4-9.6zm7.6 6.1c2.5 0 3.2-2.2 3.2-6.1v-1c0-3.9-.7-6.1-3.2-6.1h-.2c-2.5 0-3.2 2.2-3.2 6.1v1c0 3.9.7 6.1 3.2 6.1h.2zM368.1 628.7v-19.5h4v16h7.2v3.5h-11.2zM380.2 619.4v-1c0-6.7 2.4-9.6 7.4-9.6 5.1 0 7.4 2.8 7.4 9.6v1c0 6.7-2.4 9.6-7.4 9.6s-7.4-2.8-7.4-9.6zm7.6 6.1c2.5 0 3.2-2.2 3.2-6.1v-1c0-3.9-.7-6.1-3.2-6.1h-.2c-2.5 0-3.2 2.2-3.2 6.1v1c0 3.9.7 6.1 3.2 6.1h.2zM397.1 619.4v-1c0-6.7 2.4-9.6 7.5-9.6 4.6 0 7.1 2 7.1 6.8v.9h-4c0-2.7-.6-4.2-2.8-4.2h-.2c-2.7 0-3.3 2.2-3.3 6.1v1c0 3.9.6 6.1 3.5 6.1h.2c1.1 0 2-.3 2.6-.7v-3.1H405v-3.5h6.6v8.6c-1.4 1.2-3.4 2.3-6.8 2.3-5.3-.1-7.7-2.9-7.7-9.7zM418.5 628.7h-4v-19.5h4v19.5zM433.3 609.2v3.5h-7.9v4.3h6.6v3.5h-6.6v4.7h7.9v3.5h-11.9v-19.5h11.9z"/></g><g fill="#fff"><path d="M420.4 820.7v-1c0-6.7 2.4-9.6 7.5-9.6 4.6 0 7.1 1.9 7.1 6.8v.9h-4c0-2.7-.6-4.2-2.8-4.2h-.2c-2.7 0-3.3 2.2-3.3 6.1v1c0 3.9.6 6.1 3.5 6.1h.2c1.1 0 2-.3 2.6-.8v-3.1h-2.6v-3.5h6.6v8.6c-1.4 1.2-3.4 2.3-6.8 2.3-5.4 0-7.8-2.8-7.8-9.6zM449.6 810.5v3.5h-7.9v4.3h6.6v3.5h-6.6v4.7h7.9v3.5h-11.9v-19.5h11.9zm-2.4-4.3l-1.6 2.7h-3.9l1.4-2.7h4.1zM466.3 830H462l-6.3-12.1.1 3.9v8.2H452v-19.5h4.3l6.3 12.1-.1-3.9v-8.2h3.8V830zM481 810.5v3.5h-7.9v4.3h6.6v3.5h-6.6v4.7h7.9v3.5h-11.9v-19.5H481zm-2.4-4.3L477 809h-3.9l1.4-2.7h4.1zM491 830h-4v-16h-4.5v-3.5h13.1v3.5H491v16zM501.5 830h-4v-19.5h4V830zM504 820.7v-1c0-6.7 2.4-9.6 7.4-9.6 5.1 0 7.4 2.8 7.4 9.6v1c0 4.8-1.2 7.6-3.7 8.8l1.2 2.9h-3.1l-.8-2.2h-.9c-5.2.1-7.5-2.7-7.5-9.5zm9.7 5.1c.8-1 1-2.7 1-5.1v-1c0-3.9-.7-6.1-3.2-6.1h-.2c-2.5 0-3.2 2.2-3.2 6.1v1c0 3.7.6 5.9 2.9 6.1l-1.3-3.4h3l1 2.4zM521.1 823.8v-13.3h4v13.2c0 2.1.6 3.1 2.9 3.1s3-1.1 3-3.1v-13.2h4v13.3c0 4.3-1.7 6.5-7 6.5s-6.9-2.3-6.9-6.5zM549.7 810.5v3.5h-7.9v4.3h6.6v3.5h-6.6v4.7h7.9v3.5h-11.9v-19.5h11.9z"/></g><g fill="#fff"><path d="M752 228.3h-4.1l-3.5-12.5.1 3.9v8.6h-4v-19.5h6l3.5 12.5 3.5-12.5h6v19.5h-4v-8.6l.1-3.9-3.6 12.5zM766.4 228.3h-4v-19.5h4v19.5zM776.2 225.1h.2c2 0 2.7-1.4 2.7-3.5h4v.2c0 4.8-2.3 6.7-7 6.7-5.1 0-7.3-2.8-7.3-9.6v-1c0-6.7 2.2-9.6 7.3-9.6 4.6 0 7 1.9 7 6.8v.9h-4c0-2.7-.6-4.2-2.7-4.2h-.2c-2.6 0-3.2 2.2-3.2 6.1v1c0 4 .6 6.2 3.2 6.2zM789.6 228.3h-4v-19.5h6.4c3.2 0 6.8.8 6.8 6v.5c0 3.1-1.3 4.7-3.1 5.4l3.1 7.6h-4.4l-2.7-7h-2.1v7zm2.5-10.5c1.1 0 2.5-.4 2.5-2.6v-.3c0-2.2-1.4-2.6-2.5-2.6h-2.5v5.5h2.5zM800.4 219v-1c0-6.7 2.4-9.6 7.4-9.6 5.1 0 7.4 2.8 7.4 9.6v1c0 6.7-2.4 9.6-7.4 9.6s-7.4-2.8-7.4-9.6zm7.6 6.1c2.5 0 3.2-2.2 3.2-6.1v-1c0-3.9-.7-6.1-3.2-6.1h-.2c-2.5 0-3.2 2.2-3.2 6.1v1c0 3.9.7 6.1 3.2 6.1h.2zM824.1 208.8c3 0 6.3.8 6.3 5.4v.5c0 1.8-.8 2.9-1.9 3.5 1.4.7 2.4 1.9 2.4 4v.5c0 4.7-3.4 5.6-6.6 5.6h-6.6v-19.5h6.4zm-2.4 3.5v4.3h2.3c1 0 2.2-.4 2.2-2v-.3c0-1.6-1.2-2-2.2-2h-2.3zm0 7.8v4.7h2.7c1.1 0 2.3-.5 2.3-2.2v-.2c0-1.8-1.2-2.2-2.3-2.2h-2.7zM837.6 228.3h-4v-19.5h4v19.5zM840.1 219v-1c0-6.7 2.4-9.6 7.4-9.6 5.1 0 7.4 2.8 7.4 9.6v1c0 6.7-2.4 9.6-7.4 9.6s-7.4-2.8-7.4-9.6zm7.6 6.1c2.5 0 3.2-2.2 3.2-6.1v-1c0-3.9-.7-6.1-3.2-6.1h-.2c-2.5 0-3.2 2.2-3.2 6.1v1c0 3.9.7 6.1 3.2 6.1h.2zM857.4 228.3v-19.5h4v16h7.2v3.5h-11.2zM869.5 219v-1c0-6.7 2.4-9.6 7.4-9.6 5.1 0 7.4 2.8 7.4 9.6v1c0 6.7-2.4 9.6-7.4 9.6s-7.4-2.8-7.4-9.6zm7.6 6.1c2.5 0 3.2-2.2 3.2-6.1v-1c0-3.9-.7-6.1-3.2-6.1h-.2c-2.5 0-3.2 2.2-3.2 6.1v1c0 3.9.7 6.1 3.2 6.1h.2zM886.4 219v-1c0-6.7 2.4-9.6 7.5-9.6 4.6 0 7.1 1.9 7.1 6.8v.9h-4c0-2.7-.6-4.2-2.8-4.2h-.2c-2.7 0-3.3 2.2-3.3 6.1v1c0 3.9.7 6.1 3.5 6.1h.2c1.2 0 2-.3 2.6-.7v-3.1h-2.6v-3.5h6.6v8.6c-1.4 1.2-3.4 2.3-6.8 2.3-5.4-.1-7.8-2.9-7.8-9.7zM907.8 228.3h-4v-19.5h4v19.5zM922.6 208.8v3.5h-7.9v4.3h6.6v3.5h-6.6v4.7h7.9v3.5h-11.9v-19.5h11.9z"/></g><g fill="#fff"><path d="M669 429.4h-4.3l-6.3-12.1.1 3.9v8.2h-3.8v-19.5h4.3l6.3 12.1-.1-3.9v-8.2h3.8v19.5zM671.7 423.3V410h4v13.2c0 2.1.7 3.1 2.9 3.1 2.3 0 3-1 3-3.1V410h4v13.3c0 4.2-1.7 6.5-7 6.5s-6.9-2.3-6.9-6.5zM696 429.4h-4v-16h-4.5v-3.5h13.1v3.5H696v16zM706.4 429.4h-4v-19.5h6.4c3.2 0 6.8.8 6.8 6v.5c0 3.1-1.3 4.7-3.1 5.4l3.1 7.6h-4.4l-2.7-7h-2.1v7zm2.5-10.5c1.1 0 2.5-.4 2.5-2.6v-.3c0-2.2-1.4-2.6-2.5-2.6h-2.5v5.5h2.5zM722.1 429.4h-4v-19.5h4v19.5zM732.6 429.4h-4v-16H724v-3.5h13.1v3.5h-4.5v16zM743.1 429.4h-4v-19.5h4v19.5zM745.6 420.2v-1c0-6.7 2.4-9.6 7.4-9.6 5.1 0 7.4 2.8 7.4 9.6v1c0 6.7-2.4 9.6-7.4 9.6-5.1 0-7.4-2.9-7.4-9.6zm7.5 6.1c2.5 0 3.2-2.2 3.2-6.1v-1c0-3.9-.7-6.1-3.2-6.1h-.2c-2.5 0-3.2 2.2-3.2 6.1v1c0 3.9.7 6.1 3.2 6.1h.2zM777.1 429.4h-4.3l-6.3-12.1.1 3.9v8.2h-3.8v-19.5h4.3l6.3 12.1-.1-3.9v-8.2h3.8v19.5z"/></g><g fill="#fff"><path d="M736 600.7h-4v-19.5h6.4c3.2 0 6.8.8 6.8 6v.5c0 5.2-3.6 6-6.8 6H736v7zm2.5-10.5c1.1 0 2.5-.4 2.5-2.6v-.3c0-2.2-1.4-2.6-2.5-2.6H736v5.5h2.5zM760.9 581.2v19.5h-4v-8.2h-5.7v8.2h-4v-19.5h4v7.8h5.7v-7.8h4zM773.1 581.2l4.9 19.5h-4.3l-1-4.2H768l-.9 4.2h-4.3l4.9-19.5h5.4zm-4.3 11.8h3.2l-1.6-7.2-1.6 7.2zM783.8 600.7h-4v-19.5h6.4c3.2 0 6.8.8 6.8 6v.5c0 3.1-1.3 4.7-3.1 5.4l3.1 7.6h-4.4l-2.7-7h-2.1v7zm2.5-10.5c1.1 0 2.5-.4 2.5-2.6v-.3c0-2.2-1.4-2.6-2.5-2.6h-2.5v5.5h2.5zM806.9 600.7h-4.1l-3.5-12.5.1 3.9v8.6h-4v-19.5h6l3.5 12.5 3.5-12.5h6v19.5h-4v-8.6l.1-3.9-3.6 12.5zM826.5 581.2l4.9 19.5H827l-1-4.2h-4.8l-.9 4.2H816l4.9-19.5h5.6zm-4.4 11.8h3.2l-1.6-7.2-1.6 7.2zM839.7 597.6h.2c2 0 2.7-1.4 2.7-3.5h4v.2c0 4.8-2.3 6.7-7 6.7-5.1 0-7.3-2.8-7.3-9.6v-1c0-6.7 2.3-9.6 7.3-9.6 4.6 0 7 1.9 7 6.8v.9h-4c0-2.7-.6-4.2-2.7-4.2h-.2c-2.6 0-3.2 2.2-3.2 6.1v1c0 4 .6 6.2 3.2 6.2zM848.6 591.5v-1c0-6.7 2.4-9.6 7.4-9.6 5.1 0 7.4 2.8 7.4 9.6v1c0 6.7-2.4 9.6-7.4 9.6s-7.4-2.9-7.4-9.6zm7.6 6.1c2.5 0 3.2-2.2 3.2-6.1v-1c0-3.9-.7-6.1-3.2-6.1h-.2c-2.5 0-3.2 2.2-3.2 6.1v1c0 3.9.7 6.1 3.2 6.1h.2zM865.9 600.7v-19.5h4v16h7.2v3.5h-11.2zM878 591.5v-1c0-6.7 2.4-9.6 7.4-9.6 5.1 0 7.4 2.8 7.4 9.6v1c0 6.7-2.4 9.6-7.4 9.6s-7.4-2.9-7.4-9.6zm7.6 6.1c2.5 0 3.2-2.2 3.2-6.1v-1c0-3.9-.7-6.1-3.2-6.1h-.2c-2.5 0-3.2 2.2-3.2 6.1v1c0 3.9.7 6.1 3.2 6.1h.2zM894.9 591.5v-1c0-6.7 2.4-9.6 7.5-9.6 4.6 0 7.1 1.9 7.1 6.8v.9h-4c0-2.7-.6-4.2-2.8-4.2h-.2c-2.7 0-3.3 2.2-3.3 6.1v1c0 3.9.7 6.1 3.5 6.1h.2c1.2 0 2-.3 2.6-.8v-3.1h-2.6v-3.5h6.6v8.6c-1.4 1.2-3.4 2.3-6.8 2.3-5.4 0-7.8-2.9-7.8-9.6zM916.3 600.7h-4v-19.5h4v19.5zM931.1 581.2v3.5h-7.9v4.3h6.6v3.5h-6.6v4.7h7.9v3.5h-11.9v-19.5h11.9zM827.9 615.3h6.8v3.4h-6.8v-3.4zM752.6 650.7h-4v-19.5h4v19.5zM767 650.7h-4.1l-3.5-12.5.1 3.9v8.6h-4v-19.5h6l3.5 12.5 3.5-12.5h6v19.5h-4v-8.6l.1-3.9-3.6 12.5zM788.7 650.7h-4.1l-3.5-12.5.1 3.9v8.6h-4v-19.5h6l3.5 12.5 3.5-12.5h6v19.5h-4v-8.6l.1-3.9-3.6 12.5zM798.8 644.6v-13.3h4v13.2c0 2.1.7 3.1 2.9 3.1 2.3 0 3-1.1 3-3.1v-13.2h4v13.3c0 4.3-1.7 6.5-7 6.5s-6.9-2.3-6.9-6.5zM829.8 650.7h-4.3l-6.3-12.1.1 3.9v8.2h-3.8v-19.5h4.3l6.3 12.1-.1-3.9v-8.2h3.8v19.5zM832.2 641.5v-1c0-6.7 2.4-9.6 7.4-9.6 5.1 0 7.4 2.8 7.4 9.6v1c0 6.7-2.4 9.6-7.4 9.6-5.1 0-7.4-2.9-7.4-9.6zm7.5 6.1c2.5 0 3.2-2.2 3.2-6.1v-1c0-3.9-.7-6.1-3.2-6.1h-.2c-2.5 0-3.2 2.2-3.2 6.1v1c0 3.9.7 6.1 3.2 6.1h.2zM849.4 650.7v-19.5h4v16h7.2v3.5h-11.2zM861.6 641.5v-1c0-6.7 2.4-9.6 7.4-9.6 5.1 0 7.4 2.8 7.4 9.6v1c0 6.7-2.4 9.6-7.4 9.6s-7.4-2.9-7.4-9.6zm7.5 6.1c2.5 0 3.2-2.2 3.2-6.1v-1c0-3.9-.7-6.1-3.2-6.1h-.2c-2.5 0-3.2 2.2-3.2 6.1v1c0 3.9.7 6.1 3.2 6.1h.2zM878.4 641.5v-1c0-6.7 2.4-9.6 7.5-9.6 4.6 0 7.1 1.9 7.1 6.8v.9h-4c0-2.7-.6-4.2-2.8-4.2h-.2c-2.7 0-3.3 2.2-3.3 6.1v1c0 3.9.6 6.1 3.5 6.1h.2c1.2 0 2.1-.3 2.7-.8v-3.1h-2.6v-3.5h6.6v8.6c-1.4 1.2-3.4 2.3-6.8 2.3-5.5 0-7.9-2.9-7.9-9.6zM899.8 650.7h-4v-19.5h4v19.5zM914.7 631.2v3.5h-7.9v4.3h6.6v3.5h-6.6v4.7h7.9v3.5h-11.9v-19.5h11.9z"/></g><g fill="#fff"><path d="M630.7 830h-4v-19.5h6.4c3.2 0 6.8.8 6.8 6v.5c0 3.1-1.3 4.7-3.1 5.4l3.1 7.6h-4.4l-2.7-7h-2.1v7zm2.6-10.5c1.1 0 2.5-.4 2.5-2.6v-.3c0-2.2-1.4-2.6-2.5-2.6h-2.5v5.5h2.5zM654.2 810.5v3.5h-7.9v4.3h6.6v3.5h-6.6v4.7h7.9v3.5h-11.9v-19.5h11.9zM660.6 830h-4v-19.5h6.4c3.2 0 6.8.8 6.8 6v.5c0 5.2-3.6 6-6.8 6h-2.3v7zm2.6-10.5c1.1 0 2.5-.4 2.5-2.6v-.3c0-2.2-1.4-2.6-2.5-2.6h-2.5v5.5h2.5zM675.9 830h-4v-19.5h6.4c3.2 0 6.8.8 6.8 6v.5c0 3.1-1.3 4.7-3.1 5.4l3.1 7.6h-4.4l-2.7-7h-2.1v7zm2.5-10.5c1.1 0 2.5-.4 2.5-2.6v-.3c0-2.2-1.4-2.6-2.5-2.6h-2.5v5.5h2.5zM686.7 820.7v-1c0-6.7 2.4-9.6 7.4-9.6 5.1 0 7.4 2.8 7.4 9.6v1c0 6.7-2.4 9.6-7.4 9.6s-7.4-2.8-7.4-9.6zm7.6 6.1c2.5 0 3.2-2.2 3.2-6.1v-1c0-3.9-.7-6.1-3.2-6.1h-.3c-2.5 0-3.2 2.2-3.2 6.1v1c0 3.9.7 6.1 3.2 6.1h.3zM709.9 830h-6v-19.5h6c5.8 0 8.2 2.5 8.2 9.2v1c.1 6.8-2.4 9.3-8.2 9.3zm-.2-3.5c3.4 0 4.3-1.8 4.3-5.7v-1c0-3.9-1-5.7-4.3-5.7H708v12.5h1.7zM720.4 823.8v-13.3h4v13.2c0 2.1.7 3.1 2.9 3.1s3-1.1 3-3.1v-13.2h4v13.3c0 4.3-1.7 6.5-7 6.5s-6.9-2.3-6.9-6.5zM744 826.8h.2c2 0 2.7-1.4 2.7-3.5h4v.2c0 4.8-2.3 6.7-7 6.7-5.1 0-7.3-2.8-7.3-9.6v-1c0-6.7 2.2-9.6 7.3-9.6 4.6 0 7 1.9 7 6.8v.9h-4c0-2.7-.6-4.2-2.7-4.2h-.2c-2.6 0-3.2 2.2-3.2 6.1v1c0 4 .6 6.2 3.2 6.2zM760.6 830h-4v-16h-4.5v-3.5h13.1v3.5h-4.5v16zM771.2 830h-4v-19.5h4V830zM773.6 820.7v-1c0-6.7 2.4-9.6 7.4-9.6 5.1 0 7.4 2.8 7.4 9.6v1c0 6.7-2.4 9.6-7.4 9.6s-7.4-2.8-7.4-9.6zm7.6 6.1c2.5 0 3.2-2.2 3.2-6.1v-1c0-3.9-.7-6.1-3.2-6.1h-.2c-2.5 0-3.2 2.2-3.2 6.1v1c0 3.9.7 6.1 3.2 6.1h.2zM805.2 830h-4.3l-6.3-12.1.1 3.9v8.2h-3.8v-19.5h4.3l6.3 12.1-.1-3.9v-8.2h3.8V830z"/></g><linearGradient id="SVGID_1_" gradientUnits="userSpaceOnUse" x1="1130.082" y1="501.5" x2="976.387" y2="501.5"><stop offset="0" stop-color="#fff"/><stop offset="1" stop-color="#fff" stop-opacity="0"/></linearGradient><path fill="url(#SVGID_1_)" d="M975 0h224v1003H975z"/><linearGradient id="SVGID_2_" gradientUnits="userSpaceOnUse" x1="1904.775" y1="501.499" x2="1750.394" y2="501.499" gradientTransform="matrix(-1 0 0 1 1974 0)"><stop offset="0" stop-color="#fff"/><stop offset="1" stop-color="#fff" stop-opacity="0"/></linearGradient><path fill="url(#SVGID_2_)" d="M0 0h225v1003H0z"/><path fill="#fff" d="M1199 41h1426v1056H1199zM-1426 41H0v1056h-1426z"/></svg>

                